<?xml version="1.0" standalone="no"?>
<!DOCTYPE svg PUBLIC "-//W3C//DTD SVG 20010904//EN"
 "http://www.w3.org/TR/2001/REC-SVG-20010904/DTD/svg10.dtd">
<svg version="1.0" xmlns="http://www.w3.org/2000/svg"
 width="696.000000pt" height="1280.000000pt" viewBox="0 0 696.000000 1280.000000"
 preserveAspectRatio="xMidYMid meet">
<metadata>
Created by potrace 1.15, written by Peter Selinger 2001-2017
</metadata>
<g transform="translate(0.000000,1280.000000) scale(0.100000,-0.100000)"
fill="#000000" stroke="none">
<path d="M1925 12789 c-424 -41 -843 -196 -1152 -426 -311 -232 -527 -570
-588 -917 -8 -46 -30 -134 -49 -197 -223 -740 -168 -1447 164 -2110 146 -291
342 -576 651 -950 313 -378 495 -643 634 -919 l65 -128 -15 -98 c-32 -222 -39
-337 -39 -649 0 -311 5 -394 40 -650 l17 -120 -28 -55 c-82 -164 -233 -356
-464 -593 -188 -194 -263 -279 -366 -418 -388 -521 -629 -1114 -695 -1709 -21
-188 -12 -493 20 -693 81 -509 367 -1003 778 -1349 280 -235 658 -452 1032
-593 238 -90 460 -148 710 -186 193 -30 579 -33 770 -6 550 77 1070 301 1563
671 587 442 1130 1103 1481 1805 157 312 259 608 345 998 321 1450 153 3343
-446 5008 -337 937 -815 1842 -1344 2545 -742 984 -1575 1568 -2444 1714 -202
34 -452 44 -640 25z"/>
</g>
</svg>
