<?xml version="1.0" standalone="no"?>
<!DOCTYPE svg PUBLIC "-//W3C//DTD SVG 20010904//EN"
 "http://www.w3.org/TR/2001/REC-SVG-20010904/DTD/svg10.dtd">
<svg version="1.0" xmlns="http://www.w3.org/2000/svg"
 width="1280.000000pt" height="1280.000000pt" viewBox="0 0 1280.000000 1280.000000"
 preserveAspectRatio="xMidYMid meet">
<metadata>
Created by potrace 1.15, written by Peter Selinger 2001-2017
</metadata>
<g transform="translate(0.000000,1280.000000) scale(0.100000,-0.100000)"
fill="#000000" stroke="none">
<path d="M6944 12040 c-23 -5 -65 -20 -92 -34 -58 -29 -53 -11 -72 -281 -13
-174 -26 -230 -85 -377 -110 -267 -237 -485 -635 -1088 -295 -446 -400 -623
-564 -950 -217 -435 -364 -809 -496 -1265 -112 -385 -235 -986 -289 -1405 -38
-296 -46 -406 -46 -678 0 -149 -3 -272 -7 -272 -9 0 -209 41 -393 82 -140 30
-162 32 -335 32 -164 0 -199 -4 -308 -28 -646 -143 -1165 -528 -1417 -1051
-141 -292 -198 -561 -198 -930 1 -424 89 -838 285 -1330 85 -213 283 -610 371
-742 402 -602 971 -913 1769 -964 287 -18 630 6 1068 76 445 72 739 151 933
253 352 184 700 664 992 1367 307 739 386 1415 235 2008 -102 400 -306 764
-543 968 -200 173 -439 284 -699 325 -153 24 -407 15 -633 -23 -273 -47 -568
-84 -675 -86 l-95 -2 -7 65 c-3 36 -9 157 -13 270 -24 639 120 1397 415 2190
115 310 279 686 387 890 134 252 353 593 571 889 375 508 526 723 629 896 62
105 71 124 127 270 35 93 96 228 101 223 1 -2 -13 -86 -32 -188 l-35 -185 0
-315 c0 -248 3 -330 15 -385 8 -38 18 -106 22 -150 8 -88 53 -268 138 -556 42
-140 80 -242 158 -414 88 -194 123 -259 243 -445 138 -214 146 -224 399 -498
l259 -280 311 -248 c288 -229 329 -266 535 -479 207 -214 234 -246 388 -465
91 -129 181 -263 200 -296 52 -93 228 -566 259 -695 28 -120 49 -325 48 -469
0 -73 -13 -156 -39 -250 l-7 -25 28 25 c16 14 25 18 21 10 -8 -15 27 21 110
112 45 50 142 178 235 313 76 108 178 354 230 556 59 227 91 584 71 786 -7 59
-17 162 -23 228 -14 159 -55 322 -146 579 -67 190 -86 232 -195 425 -101 179
-145 245 -274 410 -140 178 -167 206 -287 305 -72 60 -491 406 -930 768 l-798
660 -135 157 c-152 176 -286 376 -357 536 -83 188 -123 330 -163 582 l-36 232
26 34 c40 52 35 88 -20 147 -26 28 -50 50 -54 50 -4 0 -38 18 -76 40 -126 72
-279 109 -370 90z"/>
</g>
</svg>
