<?xml version="1.0" standalone="no"?>
<!DOCTYPE svg PUBLIC "-//W3C//DTD SVG 20010904//EN"
 "http://www.w3.org/TR/2001/REC-SVG-20010904/DTD/svg10.dtd">
<svg version="1.0" xmlns="http://www.w3.org/2000/svg"
 width="1280.000000pt" height="1241.000000pt" viewBox="0 0 1280.000000 1241.000000"
 preserveAspectRatio="xMidYMid meet">
<metadata>
Created by potrace 1.15, written by Peter Selinger 2001-2017
</metadata>
<g transform="translate(0.000000,1241.000000) scale(0.100000,-0.100000)"
fill="#000000" stroke="none">
<path d="M4285 12404 c-22 -2 -89 -9 -150 -14 -242 -24 -551 -88 -700 -146
-38 -14 -180 -64 -314 -110 -366 -125 -567 -221 -816 -387 -831 -554 -1453
-1542 -1870 -2972 -26 -88 -67 -225 -91 -305 -349 -1131 -435 -2383 -238
-3460 110 -604 325 -1231 574 -1675 478 -854 922 -1467 1430 -1976 326 -327
684 -606 1017 -793 189 -105 838 -298 1368 -405 546 -111 985 -155 1535 -155
529 0 924 40 1376 139 470 104 1429 607 2179 1143 1416 1013 2499 2229 2976
3344 184 430 233 634 233 973 1 248 -12 315 -124 683 -44 145 -125 421 -181
615 -280 980 -430 1389 -680 1858 -49 92 -98 191 -108 221 -75 219 -240 460
-449 659 -168 160 -334 280 -492 356 -74 35 -265 128 -425 204 -159 77 -551
272 -870 435 -1659 843 -2205 1107 -2860 1384 -215 90 -265 107 -475 160 -437
109 -735 164 -1125 206 -132 14 -634 27 -720 18z"/>
</g>
</svg>
