<?xml version="1.0" standalone="no"?>
<!DOCTYPE svg PUBLIC "-//W3C//DTD SVG 20010904//EN"
 "http://www.w3.org/TR/2001/REC-SVG-20010904/DTD/svg10.dtd">
<svg version="1.0" xmlns="http://www.w3.org/2000/svg"
 width="899.000000pt" height="1280.000000pt" viewBox="0 0 899.000000 1280.000000"
 preserveAspectRatio="xMidYMid meet">
<metadata>
Created by potrace 1.15, written by Peter Selinger 2001-2017
</metadata>
<g transform="translate(0.000000,1280.000000) scale(0.100000,-0.100000)"
fill="#000000" stroke="none">
<path d="M1971 12776 c-150 -1665 -173 -1963 -174 -2241 -1 -166 3 -327 11
-395 45 -411 140 -755 303 -1088 43 -90 79 -166 79 -169 0 -3 -17 10 -37 29
-78 70 -208 162 -380 270 -208 129 -324 209 -485 331 -294 223 -466 389 -908
880 -201 223 -368 406 -371 406 -4 1 0 -29 7 -66 7 -38 50 -255 94 -483 88
-451 103 -517 150 -660 47 -141 92 -246 187 -432 138 -271 305 -530 559 -864
153 -202 203 -280 270 -419 174 -363 256 -781 304 -1555 30 -479 88 -1031 151
-1430 154 -973 402 -1670 776 -2172 91 -122 279 -317 393 -407 157 -125 311
-218 484 -292 l78 -34 -6 -43 c-8 -59 21 -1059 35 -1180 38 -351 141 -562 319
-659 68 -37 231 -78 367 -93 209 -23 400 29 534 144 173 147 259 350 289 686
15 176 24 896 12 950 l-11 45 47 39 c150 124 335 346 475 571 l73 118 -12 91
-12 90 29 36 c149 178 246 324 343 517 184 369 287 784 356 1438 103 978 151
1268 285 1710 149 490 402 981 833 1615 205 302 460 628 1242 1589 176 217
318 396 316 398 -7 7 -1089 -265 -1221 -308 -438 -140 -848 -344 -1165 -580
-147 -109 -378 -333 -486 -470 -97 -123 -202 -286 -265 -409 l-43 -85 -13 235
c-72 1377 -287 2269 -733 3046 -213 371 -537 780 -707 894 -105 70 -189 94
-307 88 -174 -9 -285 -86 -457 -318 -359 -483 -639 -1035 -835 -1645 -31 -99
-59 -182 -62 -185 -7 -9 -139 136 -178 196 -119 186 -138 261 -344 1327 -172
889 -187 964 -189 943z"/>
</g>
</svg>
