<?xml version="1.0" standalone="no"?>
<!DOCTYPE svg PUBLIC "-//W3C//DTD SVG 20010904//EN"
 "http://www.w3.org/TR/2001/REC-SVG-20010904/DTD/svg10.dtd">
<svg version="1.0" xmlns="http://www.w3.org/2000/svg"
 width="710.000000pt" height="1280.000000pt" viewBox="0 0 710.000000 1280.000000"
 preserveAspectRatio="xMidYMid meet">
<metadata>
Created by potrace 1.15, written by Peter Selinger 2001-2017
</metadata>
<g transform="translate(0.000000,1280.000000) scale(0.100000,-0.100000)"
fill="#000000" stroke="none">
<path d="M6095 12793 c-33 -8 -141 -90 -210 -159 -119 -119 -182 -206 -378
-519 -196 -314 -298 -442 -421 -529 -129 -92 -205 -118 -421 -147 -424 -55
-754 -131 -1015 -234 -275 -109 -504 -247 -677 -408 -37 -35 -99 -84 -138
-109 -97 -62 -197 -151 -280 -248 -245 -286 -344 -545 -267 -696 19 -38 76
-96 116 -119 17 -10 13 -21 -43 -132 -199 -398 -370 -824 -641 -1598 -249
-710 -311 -879 -426 -1163 -123 -307 -158 -379 -382 -792 -456 -840 -637
-1245 -766 -1705 -103 -366 -137 -636 -139 -1095 -2 -326 6 -418 58 -675 164
-814 652 -1539 1325 -1969 122 -78 385 -202 530 -250 299 -98 695 -181 1070
-223 219 -24 728 -24 930 0 404 50 744 146 1065 302 271 131 416 237 636 462
262 268 470 574 665 978 155 321 314 758 373 1025 202 920 317 1809 361 2795
13 282 13 936 0 1220 -5 121 -14 328 -20 460 -16 359 -28 560 -51 869 -21 262
-21 279 -5 288 44 25 88 75 118 135 30 62 32 73 33 172 0 58 -5 138 -12 176
-7 39 -17 124 -23 190 -65 697 -356 1393 -811 1938 -49 59 -95 120 -100 135
-18 44 -13 151 10 222 27 86 96 199 246 405 153 210 206 297 240 400 54 160
19 309 -100 428 -79 79 -179 144 -250 162 -56 14 -157 18 -200 8z"/>
</g>
</svg>
