<?xml version="1.0" standalone="no"?>
<!DOCTYPE svg PUBLIC "-//W3C//DTD SVG 20010904//EN"
 "http://www.w3.org/TR/2001/REC-SVG-20010904/DTD/svg10.dtd">
<svg version="1.0" xmlns="http://www.w3.org/2000/svg"
 width="745.000000pt" height="1280.000000pt" viewBox="0 0 745.000000 1280.000000"
 preserveAspectRatio="xMidYMid meet">
<metadata>
Created by potrace 1.15, written by Peter Selinger 2001-2017
</metadata>
<g transform="translate(0.000000,1280.000000) scale(0.100000,-0.100000)"
fill="#000000" stroke="none">
<path d="M2219 12734 c-34 -75 -119 -320 -119 -344 0 -12 -22 -15 -128 -17
-117 -1 -269 -16 -315 -29 -13 -4 -16 -11 -11 -27 17 -57 100 -240 140 -309
l44 -77 -50 -47 c-52 -49 -201 -224 -234 -275 l-18 -29 73 -34 c72 -33 221
-84 307 -106 l42 -11 0 -112 c1 -111 22 -332 33 -344 14 -13 281 111 392 181
84 54 160 120 195 171 82 119 75 333 -15 451 -14 19 -21 34 -14 34 24 0 205
-92 283 -144 285 -190 405 -425 341 -670 -76 -291 -258 -503 -450 -523 -51 -5
-67 -14 -46 -27 16 -11 126 14 180 40 85 41 186 149 243 260 62 120 107 255
114 346 20 247 -154 487 -484 666 l-74 39 44 7 c25 4 73 20 108 37 167 79 224
183 236 434 9 171 -16 415 -42 415 -33 0 -297 -124 -366 -172 l-27 -18 -73 72
c-72 72 -197 178 -251 213 l-27 17 -31 -68z"/>
<path d="M506 11145 c-11 -30 -36 -245 -41 -355 l-4 -115 -69 -16 c-137 -33
-392 -124 -392 -140 0 -16 152 -209 227 -289 l77 -82 -18 -32 c-95 -159 -196
-367 -196 -400 0 -23 232 -56 391 -56 l87 0 6 -37 c20 -110 124 -414 147 -429
14 -8 187 124 285 218 44 43 84 78 88 78 4 0 26 -13 49 -28 108 -73 373 -200
388 -185 18 19 42 245 42 403 0 176 -13 262 -54 342 -62 122 -260 229 -400
216 -27 -3 -49 -4 -49 -2 0 2 51 19 114 39 352 110 725 175 1006 175 349 0
866 -112 1195 -260 59 -26 75 -28 75 -9 0 10 -225 98 -365 142 -232 74 -517
130 -759 148 -294 21 -684 -32 -1090 -151 -75 -22 -139 -40 -142 -40 -3 0 4
13 16 29 74 104 85 302 25 422 -56 109 -228 239 -467 353 -163 77 -165 78
-172 61z"/>
<path d="M4966 10869 c-164 -24 -412 -98 -680 -203 -376 -148 -538 -246 -741
-450 -148 -149 -237 -269 -324 -436 l-60 -116 -60 -18 c-138 -41 -315 -180
-407 -318 -35 -52 -51 -68 -63 -63 -92 36 -174 49 -296 49 -137 1 -199 -11
-317 -58 -220 -89 -392 -280 -468 -521 -47 -150 -36 -380 26 -530 14 -33 28
-67 30 -75 4 -13 -12 -15 -98 -16 -348 -4 -651 -237 -760 -584 -20 -65 -23
-96 -23 -225 0 -129 3 -160 23 -225 46 -146 126 -276 231 -372 60 -56 60 -56
39 -74 -62 -56 -150 -211 -188 -329 -34 -109 -39 -286 -11 -409 49 -213 177
-394 359 -509 53 -34 61 -43 56 -61 -14 -40 -7 -239 9 -308 21 -87 59 -179
101 -248 l34 -55 -28 -85 c-98 -292 -30 -602 180 -824 37 -39 100 -91 138
-116 l71 -45 -6 -110 c-16 -331 169 -645 462 -785 l65 -31 -7 -42 c-16 -88 -8
-268 16 -352 79 -286 300 -505 582 -580 l82 -21 17 -85 c52 -251 211 -457 443
-570 43 -21 83 -39 88 -41 7 -2 6 -21 -1 -53 -19 -83 -14 -259 10 -350 67
-263 250 -471 495 -566 463 -180 957 75 1091 561 24 88 25 288 1 384 -20 81
-82 217 -128 280 l-31 45 50 58 c67 78 117 158 152 245 29 74 60 214 60 272 0
29 4 33 59 54 174 68 341 230 425 414 54 117 70 196 70 338 0 134 -17 218 -69
335 -14 32 -25 59 -25 60 0 1 19 15 42 30 140 93 261 260 318 440 31 99 38
273 16 386 -31 154 -105 294 -217 412 -32 34 -57 62 -56 63 1 0 29 15 62 33
156 82 275 203 351 356 63 128 86 224 86 365 1 205 -60 372 -194 533 -22 27
-39 50 -37 51 2 2 20 11 39 21 88 45 202 150 269 248 45 66 95 178 117 262 25
95 25 295 1 384 -44 163 -102 265 -217 382 -98 100 -199 163 -323 204 l-82 26
-1 127 c0 150 -17 227 -75 351 -98 210 -263 356 -489 432 -83 28 -112 33 -231
37 l-136 4 -2 65 c-6 184 -113 410 -254 540 -112 102 -220 159 -370 198 l-89
22 -22 64 c-76 216 -221 376 -427 473 -124 59 -184 71 -356 71 l-152 0 40 75
c104 194 254 383 402 511 160 137 315 225 592 337 669 269 1006 302 1363 132
131 -63 247 -139 497 -327 359 -270 525 -362 764 -424 111 -29 304 -36 409
-15 109 22 174 50 165 71 -3 10 -13 14 -22 11 -9 -3 -43 -15 -76 -26 -44 -16
-93 -23 -183 -27 -193 -9 -338 23 -537 116 -141 67 -231 125 -465 301 -411
310 -601 414 -820 449 -76 13 -289 12 -374 0z m-1716 -3798 c0 -23 -5 -30 -27
-36 -16 -3 -61 -22 -101 -41 -41 -20 -75 -34 -76 -32 -23 36 -37 60 -34 62 2
2 33 10 70 20 37 9 89 25 115 35 26 11 49 20 51 20 1 1 2 -12 2 -28z"/>
</g>
</svg>
