<?xml version="1.0" standalone="no"?>
<!DOCTYPE svg PUBLIC "-//W3C//DTD SVG 20010904//EN"
 "http://www.w3.org/TR/2001/REC-SVG-20010904/DTD/svg10.dtd">
<svg version="1.0" xmlns="http://www.w3.org/2000/svg"
 width="1266.000000pt" height="1280.000000pt" viewBox="0 0 1266.000000 1280.000000"
 preserveAspectRatio="xMidYMid meet">
<metadata>
Created by potrace 1.15, written by Peter Selinger 2001-2017
</metadata>
<g transform="translate(0.000000,1280.000000) scale(0.100000,-0.100000)"
fill="#000000" stroke="none">
<path d="M6455 12788 c-36 -19 -136 -122 -177 -182 -93 -134 -186 -373 -238
-605 -98 -444 -104 -1041 -14 -1531 22 -118 53 -260 70 -312 4 -15 1 -15 -32
-6 -155 42 -678 -136 -1428 -486 -725 -339 -1718 -874 -1911 -1030 -35 -28
-234 -188 -442 -355 -549 -442 -657 -535 -864 -741 -202 -201 -280 -294 -397
-470 -203 -306 -335 -467 -691 -835 -194 -201 -293 -326 -317 -399 -32 -96 3
-284 56 -301 42 -13 113 19 319 143 752 453 1265 690 2101 968 155 52 306 110
385 148 496 238 1320 848 1993 1476 77 71 245 243 373 382 129 138 301 324
383 412 274 296 416 478 504 641 l43 80 -4 -190 c-5 -200 -22 -322 -73 -515
-55 -210 -191 -585 -221 -607 -9 -7 -40 -13 -67 -13 -131 0 -388 -55 -567
-121 -603 -221 -1132 -713 -1492 -1389 -289 -542 -457 -1226 -457 -1859 0
-238 33 -754 71 -1116 213 -2027 813 -3448 1624 -3850 193 -95 369 -132 580
-122 277 14 519 84 840 242 767 379 1494 1116 2027 2055 121 213 288 587 377
843 177 512 255 966 255 1477 0 475 -65 872 -219 1335 -416 1254 -1335 2207
-2360 2448 -133 31 -303 57 -377 57 -30 0 -58 3 -61 6 -4 4 2 19 12 33 34 48
98 185 129 276 63 184 104 436 120 748 l7 138 100 -118 c124 -147 638 -663
885 -889 368 -335 734 -650 1045 -898 247 -197 264 -210 430 -301 77 -43 302
-171 500 -285 198 -114 414 -237 480 -272 403 -219 720 -350 1014 -419 402
-94 567 -150 1054 -353 335 -140 418 -167 522 -173 69 -4 89 -1 150 21 99 38
154 72 161 101 13 54 -26 92 -377 360 -528 403 -1025 893 -1480 1457 -68 84
-150 182 -184 217 -332 350 -1176 898 -2060 1336 -260 129 -399 189 -860 373
-600 240 -775 303 -971 353 -113 29 -145 33 -259 34 -71 0 -144 -4 -161 -8
l-30 -8 -13 98 c-7 53 -29 171 -48 263 -54 261 -63 331 -63 520 0 357 63 682
253 1300 125 405 132 462 52 418z"/>
</g>
</svg>
