<?xml version="1.0" standalone="no"?>
<!DOCTYPE svg PUBLIC "-//W3C//DTD SVG 20010904//EN"
 "http://www.w3.org/TR/2001/REC-SVG-20010904/DTD/svg10.dtd">
<svg version="1.0" xmlns="http://www.w3.org/2000/svg"
 width="1280.000000pt" height="681.000000pt" viewBox="0 0 1280.000000 681.000000"
 preserveAspectRatio="xMidYMid meet">
<metadata>
Created by potrace 1.15, written by Peter Selinger 2001-2017
</metadata>
<g transform="translate(0.000000,681.000000) scale(0.100000,-0.100000)"
fill="#000000" stroke="none">
<path d="M12510 6777 c-140 -16 -256 -31 -257 -32 -2 -1 -7 -26 -13 -55 -6
-29 -11 -54 -13 -56 -3 -2 -1429 -274 -1440 -274 -20 0 -135 -123 -195 -208
-94 -136 -146 -184 -232 -217 -87 -33 -128 -72 -174 -164 -62 -122 -111 -164
-237 -202 -41 -12 -91 -30 -112 -41 -37 -18 -40 -18 -83 -2 -54 20 -130 14
-177 -15 -24 -15 -37 -17 -50 -9 -41 22 -79 27 -111 14 -26 -11 -176 -154
-218 -208 -10 -12 -48 -21 -143 -32 -125 -16 -170 -31 -181 -61 -3 -7 -23 -16
-44 -20 -22 -4 -50 -15 -64 -26 -14 -11 -40 -19 -64 -19 -44 0 -102 -17 -102
-31 0 -4 -34 -7 -76 -6 -74 2 -76 1 -105 -31 -16 -18 -29 -38 -29 -46 0 -8
-15 -17 -35 -20 -20 -4 -43 -18 -55 -34 -22 -28 -24 -29 -63 -31 -13 0 -32 -9
-43 -20 -14 -12 -40 -20 -82 -23 -37 -2 -68 -11 -79 -20 -14 -13 -36 -16 -90
-15 -62 2 -75 -1 -95 -20 -20 -19 -36 -23 -89 -23 -80 0 -136 -15 -152 -41 -8
-13 -23 -19 -47 -19 -19 0 -49 -9 -67 -20 -25 -15 -43 -18 -81 -13 -35 4 -59
1 -82 -10 -24 -13 -49 -15 -108 -10 -74 5 -79 4 -110 -22 -32 -27 -36 -28
-117 -22 -90 6 -136 -2 -167 -30 -12 -11 -32 -16 -53 -14 -18 1 -47 -5 -63
-13 -23 -12 -46 -14 -90 -10 -42 5 -66 2 -86 -8 -24 -12 -35 -13 -79 -1 -66
17 -88 16 -114 -2 -17 -12 -59 -15 -211 -15 -151 -1 -193 -4 -210 -16 -17 -11
-36 -13 -82 -8 -47 5 -65 3 -85 -10 -24 -16 -28 -15 -114 24 -89 40 -136 49
-171 30 -10 -6 -116 -10 -246 -11 -156 0 -234 -4 -248 -12 -18 -11 -73 -14
-231 -16 -25 0 -56 9 -81 24 -51 30 -257 115 -279 115 -8 0 -41 14 -73 31 -45
24 -66 30 -99 26 -33 -3 -55 2 -100 25 -39 20 -68 28 -88 25 -26 -4 -40 5
-117 79 -84 81 -100 90 -153 84 -40 -4 -82 -34 -165 -119 -130 -133 -213 -288
-244 -450 l-12 -64 -133 289 c-73 159 -158 344 -188 411 -50 108 -59 122 -85
127 -55 11 -505 56 -663 66 -220 14 -430 12 -555 -4 -202 -27 -495 -107 -904
-246 -181 -62 -241 -78 -251 -70 -7 6 -21 33 -31 61 -14 37 -22 48 -34 43 -95
-41 -115 -45 -222 -45 -101 0 -148 3 -235 17 l-33 5 24 -68 c13 -37 38 -113
56 -168 96 -299 285 -803 392 -1045 94 -215 497 -1014 594 -1180 235 -401 396
-611 680 -891 498 -489 1110 -882 1864 -1196 740 -309 1587 -458 2495 -440
876 18 1610 138 2309 377 450 154 955 408 1388 698 449 301 896 694 1233 1083
409 473 757 1091 1095 1944 153 387 286 869 430 1555 28 135 67 317 86 405 33
152 154 732 154 741 0 6 -6 5 -290 -29z"/>
</g>
</svg>
