<?xml version="1.0" standalone="no"?>
<!DOCTYPE svg PUBLIC "-//W3C//DTD SVG 20010904//EN"
 "http://www.w3.org/TR/2001/REC-SVG-20010904/DTD/svg10.dtd">
<svg version="1.0" xmlns="http://www.w3.org/2000/svg"
 width="1232.000000pt" height="1280.000000pt" viewBox="0 0 1232.000000 1280.000000"
 preserveAspectRatio="xMidYMid meet">
<metadata>
Created by potrace 1.15, written by Peter Selinger 2001-2017
</metadata>
<g transform="translate(0.000000,1280.000000) scale(0.100000,-0.100000)"
fill="#000000" stroke="none">
<path d="M6015 12624 c-88 -12 -248 -27 -355 -32 -196 -9 -492 -53 -600 -89
-25 -8 -70 -18 -100 -23 -53 -7 -154 -42 -175 -60 -6 -5 -53 -23 -105 -41 -52
-17 -111 -39 -130 -49 -19 -10 -60 -31 -90 -47 -100 -51 -304 -177 -359 -221
-30 -23 -75 -55 -100 -69 -25 -14 -62 -41 -81 -58 -34 -32 -124 -85 -145 -85
-5 0 -34 -16 -64 -35 -30 -19 -75 -41 -100 -50 -26 -8 -69 -34 -96 -56 -27
-22 -67 -50 -89 -61 -22 -11 -63 -36 -91 -54 -28 -19 -83 -43 -123 -54 -67
-19 -163 -72 -267 -149 -22 -17 -63 -42 -90 -57 -28 -15 -75 -46 -105 -69 -30
-23 -77 -54 -105 -68 -27 -14 -84 -54 -126 -90 -81 -67 -169 -127 -186 -127
-16 0 -437 -448 -475 -505 -18 -27 -48 -59 -66 -71 -46 -31 -408 -575 -432
-649 -7 -22 -29 -58 -49 -81 -20 -23 -60 -86 -90 -140 -29 -54 -68 -119 -86
-144 -30 -43 -63 -102 -99 -180 -9 -19 -30 -57 -48 -85 -41 -65 -82 -149 -108
-217 -11 -30 -34 -67 -50 -83 -17 -16 -30 -35 -30 -43 0 -8 -23 -60 -51 -114
-58 -114 -97 -226 -110 -314 -13 -91 -58 -241 -90 -304 -16 -30 -36 -84 -44
-120 -9 -36 -23 -82 -31 -103 -8 -20 -14 -65 -14 -98 0 -68 -22 -164 -50 -218
-22 -45 -38 -151 -38 -264 -1 -48 -11 -168 -24 -265 -19 -155 -22 -223 -23
-552 0 -378 7 -478 38 -550 16 -38 38 -207 31 -237 -7 -25 18 -158 65 -356 23
-93 41 -181 41 -195 0 -15 11 -62 25 -105 14 -43 25 -86 25 -95 0 -10 16 -50
35 -90 19 -39 43 -100 54 -134 29 -97 77 -211 142 -344 32 -66 59 -125 59
-131 0 -16 80 -166 100 -188 10 -11 33 -56 50 -100 17 -44 43 -102 57 -130 14
-27 31 -63 37 -80 6 -17 29 -59 51 -93 75 -118 180 -279 231 -353 28 -41 67
-103 87 -139 20 -36 59 -92 87 -125 53 -65 100 -124 155 -195 18 -25 66 -88
106 -140 40 -52 107 -129 148 -170 75 -74 211 -225 294 -326 23 -28 67 -81 97
-117 30 -37 98 -102 150 -144 52 -43 131 -112 175 -154 112 -107 248 -223 325
-277 36 -25 90 -69 120 -97 65 -62 112 -94 240 -164 52 -29 129 -74 170 -101
41 -27 87 -51 101 -55 15 -3 60 -27 100 -52 158 -98 950 -458 1232 -560 95
-34 110 -37 222 -37 127 -1 168 7 292 55 64 25 78 27 122 19 72 -13 198 -65
256 -103 102 -69 263 -99 545 -101 l185 -1 169 53 c93 29 188 63 210 74 64 33
170 36 253 8 108 -36 206 -16 523 110 80 32 200 76 268 99 136 46 415 162 535
222 42 22 174 104 292 184 118 80 227 147 243 151 15 3 61 32 102 63 41 32
102 72 134 91 33 18 96 70 141 115 64 64 99 90 169 124 61 30 111 65 160 110
39 37 91 80 115 96 24 17 96 86 160 155 64 69 175 186 247 260 215 222 316
331 384 414 76 92 128 155 175 211 65 76 105 130 126 170 12 22 35 60 52 84
17 25 43 70 58 100 14 31 45 84 68 119 23 35 56 93 72 129 16 37 47 92 68 122
54 80 167 301 191 372 12 34 34 88 51 120 16 32 29 65 29 73 0 9 23 59 50 113
62 119 105 227 176 442 29 90 66 184 80 209 15 25 35 79 46 121 36 138 46 175
88 311 23 74 52 182 66 240 13 58 33 143 44 190 67 284 99 711 86 1152 -7 216
-10 245 -27 269 -17 24 -19 45 -19 177 0 85 -6 184 -14 228 -8 44 -20 117 -27
163 -8 51 -21 96 -34 115 -24 36 -45 127 -45 197 0 27 -4 58 -9 71 -19 50 -43
144 -51 198 -6 42 -17 69 -42 102 -19 24 -42 71 -52 104 -9 32 -26 82 -38 109
-11 28 -33 84 -48 125 -34 89 -294 606 -320 635 -10 11 -27 39 -39 62 -11 22
-37 61 -58 86 -76 90 -199 260 -260 361 -10 16 -40 56 -68 88 -58 69 -173 230
-240 338 -26 41 -62 92 -81 113 -18 22 -40 56 -50 76 -9 20 -54 75 -100 122
-46 48 -84 91 -84 96 0 6 -51 55 -112 110 -62 55 -144 139 -183 187 -108 136
-176 206 -220 228 -22 11 -103 82 -180 159 -85 83 -156 145 -179 154 -21 9
-76 52 -123 97 -48 44 -123 104 -167 133 -45 29 -101 69 -124 89 -24 20 -50
36 -56 36 -7 0 -31 12 -52 28 -21 15 -59 36 -84 47 -24 11 -72 40 -105 64 -66
49 -196 111 -234 111 -13 0 -66 25 -118 56 -95 57 -204 93 -323 109 -30 4 -82
16 -115 25 -33 10 -87 22 -120 25 -33 4 -94 16 -135 27 -90 23 -203 35 -450
48 -412 22 -443 27 -695 100 -250 73 -322 88 -500 103 -27 3 -122 -6 -210 -19z"/>
</g>
</svg>
