<?xml version="1.0" standalone="no"?>
<!DOCTYPE svg PUBLIC "-//W3C//DTD SVG 20010904//EN"
 "http://www.w3.org/TR/2001/REC-SVG-20010904/DTD/svg10.dtd">
<svg version="1.0" xmlns="http://www.w3.org/2000/svg"
 width="783.000000pt" height="1280.000000pt" viewBox="0 0 783.000000 1280.000000"
 preserveAspectRatio="xMidYMid meet">
<metadata>
Created by potrace 1.15, written by Peter Selinger 2001-2017
</metadata>
<g transform="translate(0.000000,1280.000000) scale(0.100000,-0.100000)"
fill="#000000" stroke="none">
<path d="M3725 12793 c-362 -31 -708 -89 -1430 -243 -203 -43 -437 -93 -520
-110 -732 -152 -926 -206 -1240 -345 -186 -82 -507 -248 -497 -256 4 -4 25
-12 47 -19 84 -26 265 -123 355 -191 52 -39 138 -108 190 -153 369 -319 588
-434 1065 -556 170 -44 220 -59 523 -151 590 -180 759 -206 1277 -196 410 8
783 42 1410 128 648 88 936 149 1215 259 331 131 516 304 606 570 27 81 25
224 -5 310 -123 352 -618 683 -1254 840 -251 61 -519 94 -890 110 -215 9 -761
11 -852 3z"/>
<path d="M6838 11618 c-163 -293 -317 -574 -342 -624 -65 -131 -157 -352 -232
-554 -36 -96 -69 -185 -74 -197 l-9 -22 -83 30 c-274 100 -644 154 -885 130
-940 -94 -1661 -703 -2154 -1819 -76 -171 -175 -429 -241 -626 -66 -196 -85
-238 -161 -354 -137 -209 -315 -398 -877 -931 -580 -549 -832 -811 -1067
-1105 -424 -532 -648 -1016 -702 -1518 -28 -250 0 -641 70 -980 199 -978 772
-1840 1594 -2400 808 -550 1800 -761 2765 -587 1448 261 2626 1372 2990 2820
82 327 114 595 114 954 0 373 -21 530 -154 1170 -119 574 -152 815 -153 1120
-1 254 14 315 198 815 134 364 186 538 220 738 128 751 -164 1571 -744 2089
-82 74 -231 190 -270 213 -11 6 18 62 131 251 80 134 187 316 238 404 190 326
336 531 685 960 l134 164 -207 117 c-114 65 -269 153 -345 196 -76 43 -139 78
-140 78 -2 0 -136 -240 -299 -532z"/>
</g>
</svg>
