<?xml version="1.0" standalone="no"?>
<!DOCTYPE svg PUBLIC "-//W3C//DTD SVG 20010904//EN"
 "http://www.w3.org/TR/2001/REC-SVG-20010904/DTD/svg10.dtd">
<svg version="1.0" xmlns="http://www.w3.org/2000/svg"
 width="781.000000pt" height="1280.000000pt" viewBox="0 0 781.000000 1280.000000"
 preserveAspectRatio="xMidYMid meet">
<metadata>
Created by potrace 1.15, written by Peter Selinger 2001-2017
</metadata>
<g transform="translate(0.000000,1280.000000) scale(0.100000,-0.100000)"
fill="#000000" stroke="none">
<path d="M3872 12673 c-187 -476 -274 -936 -303 -1593 -17 -386 -2 -798 66
-1760 19 -272 40 -587 46 -700 12 -208 19 -924 8 -934 -3 -3 -54 17 -115 43
-923 412 -2644 497 -3038 150 -93 -82 -112 -180 -57 -296 35 -73 147 -195 258
-280 67 -51 75 -55 89 -41 14 14 10 24 -45 106 -101 149 -145 262 -126 322 4
12 23 29 43 37 162 68 753 -185 1300 -556 121 -82 153 -109 116 -97 -52 15
-491 27 -656 16 -320 -19 -497 -60 -703 -159 -289 -140 -495 -367 -640 -708
-53 -123 -118 -325 -113 -352 3 -18 20 -12 180 69 268 135 483 271 602 381
l42 38 -25 -92 c-21 -79 -24 -115 -25 -257 0 -129 3 -179 17 -229 l18 -64 -30
-56 c-43 -82 -87 -220 -106 -339 -23 -138 -16 -406 13 -533 26 -110 71 -226
117 -301 l37 -59 -30 -72 c-50 -121 -65 -210 -59 -355 2 -71 12 -153 21 -187
24 -85 75 -190 130 -262 l47 -62 -19 -38 c-11 -21 -30 -72 -43 -113 -20 -64
-23 -95 -23 -215 1 -77 6 -153 11 -170 7 -23 4 -42 -19 -97 -121 -298 -72
-690 117 -931 77 -98 200 -178 307 -201 28 -6 28 -8 28 -82 0 -190 63 -435
151 -589 84 -148 232 -279 368 -326 110 -39 244 -35 347 11 l41 18 44 -60
c106 -146 282 -261 474 -311 103 -26 288 -28 388 -4 96 24 202 70 282 122 37
25 69 44 70 43 1 -2 20 -38 43 -81 112 -210 274 -349 497 -425 346 -117 751
27 957 342 21 33 40 61 42 64 2 2 22 -6 43 -17 94 -48 173 -66 288 -65 93 1
123 5 194 29 252 85 441 316 497 603 24 127 15 309 -22 425 -5 16 3 12 37 -17
24 -20 77 -53 116 -73 321 -159 676 137 734 611 12 92 12 93 44 105 217 78
327 695 206 1162 -15 60 -56 161 -88 220 -2 4 18 19 44 35 227 133 393 491
393 849 0 162 -44 365 -111 514 l-29 64 55 111 c81 161 98 236 99 426 1 132
-3 167 -22 239 -46 168 -131 314 -238 410 -101 89 -246 151 -356 151 -47 0
-49 1 -146 99 -133 134 -265 208 -444 247 -108 23 -282 21 -392 -5 -49 -12
-90 -20 -91 -19 0 2 -6 35 -13 73 -7 46 -27 102 -58 165 -39 77 -62 110 -131
178 l-84 84 58 -6 c202 -23 295 -40 763 -135 494 -101 673 -124 940 -124 214
0 337 16 457 61 74 27 68 44 -34 87 -997 420 -1416 577 -1918 719 -508 145
-913 181 -1205 110 -75 -19 -209 -79 -260 -118 l-35 -27 -7 43 c-3 24 -7 90
-7 148 -2 201 -25 542 -91 1325 -50 599 -66 832 -81 1180 -12 294 -7 732 11
965 37 472 122 900 254 1286 35 101 61 184 57 184 -3 0 -116 11 -251 25 -135
14 -250 25 -257 25 -6 0 -34 -57 -61 -127z"/>
</g>
</svg>
