<?xml version="1.0" standalone="no"?>
<!DOCTYPE svg PUBLIC "-//W3C//DTD SVG 20010904//EN"
 "http://www.w3.org/TR/2001/REC-SVG-20010904/DTD/svg10.dtd">
<svg version="1.0" xmlns="http://www.w3.org/2000/svg"
 width="1280.000000pt" height="1280.000000pt" viewBox="0 0 1280.000000 1280.000000"
 preserveAspectRatio="xMidYMid meet">
<metadata>
Created by potrace 1.15, written by Peter Selinger 2001-2017
</metadata>
<g transform="translate(0.000000,1280.000000) scale(0.100000,-0.100000)"
fill="#000000" stroke="none">
<path d="M6821 9830 c-28 -24 -62 -25 -125 -4 -38 13 -77 15 -204 12 -103 -3
-167 -10 -187 -19 -44 -20 -785 -20 -833 0 -25 10 -36 11 -45 2 -6 -6 -35 -11
-64 -11 -34 0 -68 -7 -93 -20 -22 -11 -55 -20 -75 -20 -19 0 -35 -3 -35 -8 0
-10 -97 -32 -144 -32 -56 0 -204 -48 -216 -69 -8 -15 -28 -19 -120 -25 -62 -4
-123 -11 -137 -17 -13 -5 -46 -9 -72 -9 -40 0 -54 -6 -88 -35 -23 -19 -55 -38
-72 -41 -17 -4 -31 -10 -31 -14 0 -4 -15 -11 -34 -14 -19 -4 -45 -14 -57 -24
-13 -10 -55 -30 -94 -46 -38 -15 -89 -41 -112 -57 -24 -15 -63 -34 -87 -41
-24 -7 -57 -25 -73 -39 -16 -14 -35 -28 -43 -32 -18 -8 -93 -54 -138 -83 -53
-35 -189 -153 -289 -251 -52 -51 -101 -93 -109 -93 -7 0 -14 -7 -14 -14 0 -8
-22 -39 -50 -68 -111 -119 -210 -240 -210 -258 0 -10 -4 -20 -8 -22 -4 -1 -23
-25 -42 -51 -36 -51 -40 -53 -139 -61 -47 -5 -71 -12 -88 -28 -42 -39 -23 -58
60 -58 42 0 43 -3 22 -53 -8 -20 -15 -47 -15 -59 0 -22 -67 -197 -80 -208 -3
-3 -11 -23 -18 -45 -14 -49 -48 -105 -63 -105 -6 0 -44 31 -83 70 -104 100
-172 137 -281 151 -92 12 -193 2 -227 -22 -15 -10 -33 -19 -41 -19 -13 0 -100
-65 -157 -118 -14 -13 -33 -31 -44 -40 -25 -22 -64 -108 -75 -163 -5 -24 -11
-51 -15 -59 -10 -25 9 -43 37 -36 20 5 32 22 58 86 19 45 50 98 69 118 47 50
155 102 227 111 32 4 68 12 80 19 25 14 92 3 138 -22 17 -9 40 -16 52 -16 27
0 186 -139 226 -197 32 -47 34 -66 7 -93 -25 -25 -88 -26 -177 -4 -42 10 -89
14 -145 11 -181 -10 -258 -42 -331 -138 -77 -100 -104 -158 -117 -246 -10 -74
-7 -71 -120 -153 -56 -41 -140 -128 -140 -145 0 -4 -21 -51 -47 -104 -48 -95
-48 -97 -52 -210 -3 -117 -3 -120 51 -301 6 -19 17 -49 25 -67 8 -17 13 -40
11 -49 -5 -30 -247 -242 -313 -276 -33 -17 -73 -41 -88 -54 -15 -13 -44 -26
-65 -29 -20 -3 -67 -14 -103 -25 -36 -11 -78 -20 -93 -20 -17 0 -39 -11 -57
-29 -38 -38 -38 -56 -2 -45 47 13 125 1 144 -22 9 -10 6 -22 -10 -49 -22 -39
-27 -97 -11 -139 12 -34 27 -33 48 3 9 16 47 49 84 74 l68 46 87 -10 c48 -5
93 -15 101 -21 10 -9 12 -26 7 -67 -3 -31 -8 -100 -11 -155 -6 -109 5 -150 67
-240 37 -55 166 -175 197 -182 12 -4 22 -9 22 -14 0 -4 19 -13 43 -20 23 -7
53 -20 67 -30 15 -10 64 -22 125 -30 55 -6 110 -17 122 -23 25 -11 157 -3 213
13 19 6 80 20 135 31 155 31 221 57 346 132 20 12 63 50 96 84 34 35 80 71
104 82 24 10 57 33 73 50 17 17 37 31 45 31 9 0 29 -20 44 -45 24 -37 26 -47
17 -66 -7 -12 -9 -35 -6 -51 8 -39 -16 -94 -63 -143 -21 -22 -44 -60 -52 -85
-7 -25 -26 -67 -41 -95 -15 -27 -28 -59 -28 -70 0 -11 -9 -31 -20 -45 -11 -14
-20 -37 -20 -52 0 -15 -6 -32 -12 -37 -7 -6 -28 -23 -46 -37 -27 -22 -32 -31
-27 -54 5 -22 2 -28 -14 -33 -12 -3 -23 -13 -26 -24 -4 -10 -13 -31 -21 -46
-7 -16 -14 -34 -14 -40 0 -7 -14 -32 -30 -56 -17 -24 -30 -48 -30 -53 0 -4 13
-22 30 -40 39 -40 38 -48 -5 -48 -39 0 -61 -24 -71 -81 -4 -18 -14 -50 -24
-69 -28 -56 -40 -103 -40 -152 0 -29 -7 -54 -19 -69 -12 -16 -21 -47 -24 -84
-7 -88 -24 -162 -41 -187 -20 -27 -21 -107 -3 -114 16 -6 216 12 273 24 22 5
50 18 62 30 12 12 27 22 32 22 9 0 87 49 125 78 6 4 21 13 35 19 26 13 67 38
139 86 63 42 200 176 221 217 10 19 30 46 44 59 14 14 26 28 26 32 0 20 57 90
78 96 29 7 71 -15 85 -44 8 -17 6 -28 -9 -50 -14 -20 -21 -54 -25 -118 -3 -49
-16 -128 -28 -175 -13 -47 -26 -105 -30 -130 -5 -25 -16 -62 -25 -82 -9 -21
-16 -47 -16 -59 0 -11 -13 -40 -29 -64 -16 -24 -32 -54 -36 -67 -34 -109 -81
-148 -180 -148 -60 0 -79 -16 -54 -46 11 -13 31 -15 123 -11 196 9 256 26 339
94 16 13 34 23 41 23 17 0 147 137 166 175 8 17 18 32 21 35 12 10 29 49 29
68 0 11 11 36 25 56 17 25 25 51 25 79 0 23 9 67 21 97 38 100 51 161 39 193
-5 17 -10 61 -10 99 0 76 11 89 58 72 19 -7 31 -26 54 -89 22 -63 36 -85 62
-103 18 -12 39 -35 46 -50 7 -15 16 -34 20 -42 4 -8 38 -28 76 -43 38 -15 80
-38 94 -51 14 -13 48 -36 75 -50 28 -15 73 -40 100 -56 28 -16 59 -29 70 -29
32 -1 147 -63 159 -86 24 -43 136 -115 179 -115 40 0 132 -42 140 -64 4 -11
19 -16 44 -16 21 0 79 -9 128 -21 158 -36 174 -39 240 -39 52 0 71 -5 101 -25
43 -30 103 -33 159 -9 29 12 44 13 62 5 13 -6 100 -14 193 -17 156 -7 170 -9
170 -26 0 -23 9 -23 40 2 22 17 42 20 178 20 144 0 157 2 208 26 37 18 59 35
65 52 14 37 25 42 104 42 39 0 97 7 128 15 70 18 93 19 150 3 57 -15 89 -5
140 41 27 25 65 46 105 60 35 11 77 32 93 46 17 14 36 25 43 25 7 0 23 12 37
26 45 48 124 94 162 94 20 0 39 5 43 11 5 8 37 10 108 5 64 -5 112 -3 130 3
15 6 56 40 91 76 36 36 69 65 74 65 6 0 30 14 54 30 25 17 49 30 54 30 4 0 26
10 48 22 22 11 56 23 75 25 19 2 42 10 51 18 8 8 22 15 30 15 8 0 37 18 64 39
70 55 110 75 180 90 33 7 65 15 72 16 6 2 21 25 33 52 26 59 53 89 105 115 22
11 47 26 55 33 8 7 26 16 40 20 14 4 38 18 53 31 16 13 35 24 43 24 8 0 58 44
112 98 63 64 115 106 147 122 62 29 173 116 217 171 37 46 47 56 101 101 21
17 54 55 73 84 20 30 39 54 43 54 4 0 49 40 100 89 70 68 104 94 141 106 55
18 71 33 72 67 1 23 103 138 123 138 9 0 69 29 146 71 32 18 153 138 162 162
3 9 15 17 25 17 21 0 79 29 107 53 11 9 66 59 122 111 57 52 112 97 123 101
11 3 20 11 20 16 0 5 9 9 19 9 11 0 23 5 26 10 4 6 43 29 88 51 68 33 97 56
172 134 73 75 99 97 139 110 85 27 249 192 290 289 20 47 19 46 1 46 -25 0
-17 15 23 44 30 21 38 23 40 11 6 -29 33 -15 51 28 11 23 53 78 95 122 43 45
76 89 76 100 0 11 15 36 32 55 53 56 68 107 61 208 -5 73 -3 90 11 101 20 17
21 73 1 111 -15 28 -14 34 21 110 l37 81 -18 62 c-10 34 -27 79 -37 99 -10 21
-18 50 -18 66 0 49 -20 90 -53 110 -26 15 -35 30 -46 73 -44 173 -179 309
-306 309 -19 0 -39 14 -73 52 -82 91 -156 159 -179 164 -13 4 -23 9 -23 13 0
16 -68 31 -94 21 -39 -14 -72 -12 -90 5 -17 18 -89 45 -117 45 -11 0 -19 4
-19 8 0 4 -12 13 -27 20 -16 7 -53 27 -83 44 -42 23 -78 34 -150 44 -181 25
-194 29 -222 57 -16 16 -43 29 -67 33 -39 6 -49 11 -130 68 -36 25 -44 28 -65
17 -19 -11 -30 -9 -74 12 -29 14 -60 23 -70 20 -10 -2 -28 5 -41 16 -19 17
-38 21 -88 21 -60 0 -63 1 -63 24 0 23 -4 25 -62 28 -55 4 -123 23 -138 38 -3
3 -16 11 -30 18 -14 6 -32 16 -40 21 -8 6 -33 17 -55 26 -107 44 -127 58 -165
121 -25 40 -96 69 -148 60 -81 -14 -135 -7 -177 22 -54 38 -87 50 -170 61 -38
5 -108 24 -155 41 -47 18 -107 38 -135 46 -27 7 -72 25 -99 39 -27 14 -58 25
-70 25 -11 0 -29 9 -40 19 -22 20 -192 91 -218 91 -8 0 -27 13 -42 29 -35 37
-104 57 -145 43 -22 -8 -42 -7 -78 4 -26 8 -68 19 -92 25 -24 5 -56 20 -70 32
-15 12 -51 29 -80 37 -38 10 -56 21 -61 36 -13 32 -28 37 -42 14 -13 -20 -55
-27 -74 -12 -15 13 -167 45 -359 76 -48 7 -78 18 -95 34 -33 30 -143 32 -179
2z m-4562 -2449 c64 -30 232 -158 256 -195 20 -30 30 -102 16 -111 -7 -3 -53
18 -104 49 -51 30 -105 60 -120 65 -45 17 -301 14 -344 -4 -45 -19 -43 -19
-43 6 0 14 11 25 35 35 19 8 75 52 125 99 49 47 96 85 104 85 8 0 42 -13 75
-29z m269 -753 c-3 -9 -41 -15 -124 -18 -65 -3 -124 -9 -131 -13 -6 -4 -38
-12 -70 -18 -32 -6 -89 -26 -128 -44 -38 -19 -78 -36 -87 -39 -10 -3 -18 -13
-18 -23 0 -11 -18 -28 -43 -42 -23 -13 -58 -36 -77 -51 -19 -14 -55 -38 -80
-52 -25 -14 -56 -38 -69 -52 -14 -14 -32 -26 -42 -26 -10 0 -21 -4 -24 -10 -9
-15 -25 -12 -25 5 0 13 34 39 52 40 3 0 10 4 15 9 5 5 3 6 -4 2 -8 -4 -13 -2
-13 5 0 19 90 98 143 125 30 16 53 36 63 57 12 24 30 38 77 58 71 30 175 58
262 70 33 5 80 13 105 18 72 14 223 14 218 -1z"/>
<path d="M2030 7239 c0 -5 5 -7 10 -4 6 3 10 8 10 11 0 2 -4 4 -10 4 -5 0 -10
-5 -10 -11z"/>
<path d="M2195 7240 c-4 -6 5 -10 20 -10 15 0 24 4 20 10 -3 6 -12 10 -20 10
-8 0 -17 -4 -20 -10z"/>
</g>
</svg>
