<?xml version="1.0" standalone="no"?>
<!DOCTYPE svg PUBLIC "-//W3C//DTD SVG 20010904//EN"
 "http://www.w3.org/TR/2001/REC-SVG-20010904/DTD/svg10.dtd">
<svg version="1.0" xmlns="http://www.w3.org/2000/svg"
 width="1280.000000pt" height="1045.000000pt" viewBox="0 0 1280.000000 1045.000000"
 preserveAspectRatio="xMidYMid meet">
<metadata>
Created by potrace 1.15, written by Peter Selinger 2001-2017
</metadata>
<g transform="translate(0.000000,1045.000000) scale(0.100000,-0.100000)"
fill="#000000" stroke="none">
<path d="M3156 9362 c-359 -947 -542 -1523 -606 -1913 -33 -204 -46 -453 -32
-642 7 -89 15 -180 18 -202 l6 -41 -128 -12 c-824 -79 -1559 -597 -2013 -1417
-114 -207 -235 -517 -295 -761 -71 -285 -99 -505 -99 -804 -1 -311 27 -549 98
-825 253 -978 950 -1816 1915 -2300 871 -437 1894 -558 2793 -329 632 162
1173 469 1659 943 355 346 607 695 832 1151 246 499 395 1040 438 1587 40 510
-109 1000 -428 1410 -137 175 -352 372 -566 517 l-87 59 87 92 c188 196 294
400 353 675 30 138 33 418 6 585 -22 137 -75 341 -123 471 -84 231 -95 265
-92 302 4 49 24 58 179 76 257 31 398 38 889 43 882 9 1629 -35 2865 -168 61
-7 122 -9 135 -6 29 7 313 302 308 319 -6 18 -28 26 -83 34 l-50 6 44 38 44
38 -34 6 c-40 7 -1065 97 -1429 126 -698 55 -1198 75 -1715 67 -906 -14 -1522
-111 -2063 -323 -90 -35 -165 -64 -166 -64 -1 0 -3 15 -4 33 -11 147 -78 410
-136 533 -67 140 -130 224 -291 384 -138 137 -146 143 -140 110 28 -171 65
-354 115 -565 67 -286 104 -462 124 -588 l13 -88 -105 -81 c-221 -171 -378
-357 -521 -618 l-41 -75 5 75 c22 317 51 594 100 955 49 363 65 568 46 580
-12 7 -44 -38 -76 -107 -25 -53 -25 -53 -25 -19 0 19 7 88 16 153 16 114 15
148 -4 148 -21 0 -204 -409 -420 -940 -207 -509 -281 -680 -369 -860 l-86
-175 -9 70 c-14 107 -3 570 16 710 33 233 89 455 172 677 68 183 115 289 260
589 74 152 134 288 134 303 0 21 -5 26 -23 26 -24 0 -100 -49 -125 -79 -19
-24 0 23 43 108 50 100 34 116 -63 60 -290 -166 -843 -1091 -1143 -1912 l-54
-148 -8 123 c-17 269 6 675 69 1213 41 348 65 633 57 664 -11 42 -43 -8 -94
-144 -16 -44 -18 -46 -18 -20 0 17 8 104 19 195 10 90 16 168 14 172 -16 26
-37 -13 -108 -200z m3498 -1450 c16 -27 78 -361 102 -552 62 -498 -14 -982
-185 -1172 -55 -62 -87 -78 -151 -78 -61 0 -120 27 -149 69 -47 66 -131 321
-207 625 -66 269 -77 341 -78 516 -1 145 1 160 28 240 23 70 36 93 75 131 75
73 240 146 461 205 100 27 97 26 104 16z"/>
</g>
</svg>
