<?xml version="1.0" standalone="no"?>
<!DOCTYPE svg PUBLIC "-//W3C//DTD SVG 20010904//EN"
 "http://www.w3.org/TR/2001/REC-SVG-20010904/DTD/svg10.dtd">
<svg version="1.0" xmlns="http://www.w3.org/2000/svg"
 width="1280.000000pt" height="733.000000pt" viewBox="0 0 1280.000000 733.000000"
 preserveAspectRatio="xMidYMid meet">
<metadata>
Created by potrace 1.15, written by Peter Selinger 2001-2017
</metadata>
<g transform="translate(0.000000,733.000000) scale(0.100000,-0.100000)"
fill="#000000" stroke="none">
<path d="M10671 7306 c-44 -33 -108 -57 -281 -107 -167 -48 -267 -96 -314
-151 -38 -44 -66 -122 -66 -184 l0 -44 -43 0 c-31 0 -59 -10 -106 -37 -62 -37
-65 -40 -82 -100 -34 -122 -104 -217 -196 -265 -33 -17 -46 -30 -50 -53 -4
-16 -38 -120 -76 -230 -63 -183 -70 -209 -74 -300 -6 -114 11 -174 74 -267 19
-29 30 -54 25 -56 -23 -7 -130 -76 -170 -109 -55 -45 -135 -159 -163 -232 -78
-207 -79 -506 -3 -861 39 -181 88 -351 200 -690 56 -173 102 -315 101 -315 -1
-1 -26 -19 -56 -40 -158 -113 -285 -369 -266 -535 7 -65 52 -164 92 -202 15
-15 52 -40 81 -56 l53 -29 -35 -26 c-47 -37 -76 -100 -76 -169 l0 -56 -70 -47
c-155 -103 -179 -217 -70 -326 122 -122 368 -166 527 -95 109 49 199 168 210
279 3 31 -4 100 -16 171 -12 65 -21 137 -21 161 0 32 -6 47 -26 66 -15 13 -66
76 -114 139 -96 127 -156 191 -212 226 l-37 23 49 74 c50 76 64 87 105 87 25
0 24 1 78 -150 40 -109 110 -277 227 -540 122 -276 161 -373 153 -380 -5 -4
-32 -23 -61 -42 -253 -168 -488 -473 -667 -868 -34 -74 -65 -144 -69 -154 -5
-16 -13 -9 -42 40 -72 120 -157 176 -291 193 -222 28 -351 -44 -409 -227 -25
-77 -29 -244 -10 -342 18 -89 62 -196 89 -219 9 -7 17 -17 17 -22 0 -5 -203
-9 -461 -9 l-462 0 43 46 c116 126 131 316 40 496 -17 32 -30 60 -30 62 0 2
23 7 52 11 72 10 108 46 108 109 0 45 -1 46 -48 70 -112 57 -177 71 -322 70
-117 0 -143 -3 -195 -24 -162 -63 -270 -179 -309 -333 -11 -45 -17 -52 -40
-55 -15 -2 -60 6 -99 18 -85 26 -148 81 -166 145 -22 78 -24 76 132 153 207
103 311 176 457 322 171 170 269 325 340 536 55 163 74 286 74 504 1 107 -2
227 -7 267 l-7 72 52 -34 c142 -92 164 -120 148 -190 -15 -62 -12 -135 10
-248 l20 -104 -69 -70 c-203 -208 -198 -487 14 -700 67 -68 73 -71 129 -78 87
-11 213 0 277 24 141 54 207 171 224 401 6 75 -27 558 -40 597 -2 7 -26 18
-53 27 -66 19 -112 44 -112 59 0 23 -71 161 -114 222 -89 124 -248 255 -427
354 l-76 41 -6 173 c-13 401 -96 620 -410 1076 l-99 144 30 91 c29 88 64 272
77 406 l6 65 -153 -1 c-84 0 -171 -6 -193 -12 -24 -7 -74 -40 -123 -82 -46
-38 -87 -70 -92 -70 -5 0 -39 25 -77 54 -83 67 -107 75 -145 46 l-29 -21 -68
63 c-84 78 -341 223 -355 200 -13 -22 -109 -392 -126 -484 -12 -66 -12 -66
-57 -83 -159 -61 -354 -259 -458 -465 -42 -82 -92 -238 -110 -337 -17 -98 -20
-304 -5 -403 13 -94 55 -230 95 -311 l34 -69 -59 -30 c-285 -144 -458 -545
-342 -793 35 -75 86 -135 147 -174 l44 -27 -55 -58 c-131 -137 -146 -298 -38
-403 63 -62 136 -88 249 -88 50 0 110 5 135 12 25 7 54 15 65 18 18 5 17 2 -6
-23 -91 -100 -196 -327 -240 -517 -16 -66 -32 -74 -118 -56 -79 16 -157 54
-301 147 -69 44 -128 78 -131 76 -4 -2 -17 -41 -29 -86 -62 -228 1 -467 157
-594 80 -65 149 -88 270 -88 112 -1 117 -8 35 -46 -111 -53 -357 -62 -732 -29
l-135 12 0 111 c0 101 -2 116 -27 161 -36 69 -105 130 -191 170 -68 32 -196
65 -252 65 -31 0 -31 4 0 38 14 15 52 79 85 142 32 63 71 132 87 153 l28 38
95 3 c66 2 115 10 160 25 172 60 311 193 341 327 10 46 10 60 -5 98 -32 83
-126 138 -261 152 -62 6 -66 8 -59 28 4 12 9 47 11 79 4 48 -1 76 -32 164 -28
81 -37 125 -39 181 -1 72 -3 76 -36 103 -64 53 -147 74 -305 74 -77 0 -163 -4
-191 -8 l-50 -8 -19 73 c-13 50 -20 122 -23 228 -3 137 -1 169 21 276 36 171
101 341 177 461 16 26 30 55 30 64 0 10 -17 27 -40 40 -47 27 -58 51 -36 84
29 44 199 216 306 309 58 51 195 165 305 253 223 179 415 350 459 407 l28 38
-48 -7 c-98 -13 -214 -36 -254 -50 l-41 -15 32 58 c41 73 93 150 189 282 187
258 275 407 329 564 17 49 30 91 28 93 -7 6 -145 -55 -216 -96 -170 -99 -350
-264 -641 -584 -83 -93 -154 -166 -156 -164 -8 7 47 181 103 327 142 371 193
554 209 739 l7 83 -24 -12 c-97 -50 -187 -168 -345 -447 -148 -263 -249 -413
-275 -413 -5 0 -9 78 -9 173 0 112 -5 190 -14 223 -13 51 -42 104 -56 104 -4
0 -17 -27 -29 -60 -12 -32 -26 -62 -31 -65 -6 -4 -10 56 -10 159 0 172 -10
246 -41 307 -15 30 -47 58 -54 47 -4 -7 -158 -738 -195 -923 -79 -401 -136
-780 -161 -1067 l-12 -138 -58 0 -58 0 -6 -47 c-41 -309 -116 -510 -241 -643
-106 -111 -226 -168 -405 -190 -52 -6 -98 -15 -103 -20 -6 -6 -33 -47 -60 -92
l-51 -81 -61 -13 c-86 -17 -154 -53 -282 -149 -61 -46 -138 -97 -172 -113
l-61 -31 -48 29 c-60 37 -127 104 -151 151 -10 19 -24 64 -30 98 -11 61 -10
64 13 90 41 44 54 82 60 177 7 111 16 135 100 248 82 110 101 162 94 259 -3
40 -8 84 -12 98 -6 23 3 38 65 110 40 46 76 94 82 108 12 34 -7 76 -50 109
-78 60 -192 23 -307 -99 l-64 -68 20 57 c29 85 49 178 49 231 0 106 -55 188
-141 211 -62 17 -81 5 -99 -66 -8 -32 -20 -59 -25 -59 -5 0 -37 40 -70 89 -74
111 -97 128 -174 134 -55 4 -60 2 -76 -21 -26 -40 -29 -95 -10 -187 9 -46 19
-90 22 -97 3 -8 -17 1 -45 18 -56 34 -118 43 -145 20 -26 -21 -49 -119 -54
-231 -8 -169 19 -257 153 -490 127 -222 149 -277 163 -405 9 -75 11 -79 59
-129 76 -79 82 -91 82 -171 1 -200 83 -340 281 -475 70 -48 89 -66 83 -79 -26
-61 -55 -172 -65 -247 -23 -171 7 -424 66 -551 14 -31 25 -60 25 -65 0 -6 -38
-50 -85 -99 -115 -122 -171 -206 -199 -303 l-12 -41 -14 40 c-23 71 -70 156
-112 201 -135 147 -369 131 -544 -38 -105 -101 -163 -241 -150 -366 8 -72 43
-160 86 -214 17 -20 30 -39 30 -41 0 -2 -91 -7 -202 -10 -112 -4 -215 -9 -230
-13 l-28 -6 0 -104 0 -104 6400 0 6400 0 0 115 0 115 -1595 0 c-1575 0 -1596
0 -1585 19 17 32 12 68 -20 148 -35 88 -37 113 -10 138 27 25 25 51 -9 127
-39 85 -44 120 -31 203 30 186 154 364 380 544 104 83 238 177 243 170 16 -22
77 -127 132 -229 91 -167 150 -253 223 -323 70 -66 178 -123 217 -113 39 10
91 62 113 113 19 45 52 226 52 287 0 14 4 26 9 26 24 0 103 -139 177 -313 34
-80 86 -153 132 -184 43 -29 131 -46 191 -38 70 9 132 50 256 166 119 111 194
155 282 166 l50 5 -19 -73 c-53 -203 21 -374 189 -438 183 -70 393 -10 505
143 25 35 28 47 28 120 0 108 -19 191 -73 323 -40 98 -44 115 -36 149 25 112
1 323 -50 421 -83 162 -302 190 -484 60 -82 -59 -152 -135 -284 -310 -162
-215 -301 -345 -370 -347 -27 0 -308 527 -445 835 l-53 120 12 135 c34 389 41
806 17 981 l-6 46 38 8 c124 23 336 112 448 188 187 127 285 273 399 598 61
173 84 222 134 291 47 66 110 104 202 123 210 45 250 64 290 135 29 51 25 96
-10 123 -22 15 -43 19 -114 19 -64 1 -88 4 -92 15 -6 15 23 59 101 152 67 80
84 126 68 179 -17 57 -43 76 -102 74 -75 -1 -120 -31 -172 -114 -89 -143 -104
-163 -137 -185 -19 -13 -38 -23 -42 -23 -5 0 7 36 26 80 65 152 70 247 15 302
-47 46 -118 34 -172 -30 -32 -39 -41 -62 -83 -222 -31 -116 -74 -220 -91 -220
-3 0 -32 22 -64 50 -113 93 -198 131 -297 132 -81 0 -136 -29 -176 -94 -27
-43 -28 -50 -17 -83 15 -45 72 -88 146 -112 52 -16 54 -18 54 -52 1 -51 38
-136 108 -243 93 -145 110 -198 92 -303 -33 -198 -212 -369 -482 -459 -42 -14
-80 -26 -85 -26 -5 0 -15 102 -22 228 -48 867 -161 1288 -420 1555 -144 149
-328 234 -551 254 l-85 8 -13 40 c-9 26 -12 68 -9 120 5 90 33 159 84 207 l29
28 59 -25 c118 -48 193 -27 297 83 35 37 80 80 100 96 60 45 162 74 327 91
202 21 313 52 328 91 3 8 -1 43 -7 78 -12 57 -11 67 6 102 19 39 36 50 155
104 31 14 51 30 58 48 59 153 -26 307 -183 328 l-44 6 -6 51 c-8 57 -34 112
-68 144 -29 27 -89 53 -123 53 -14 0 -28 7 -31 15 -10 25 -94 20 -133 -9z
m-5160 -4629 c-3 -70 -17 -134 -67 -292 -20 -64 -37 -143 -41 -187 l-6 -78
-36 0 c-55 0 -121 38 -144 82 -27 54 -32 132 -12 208 34 131 111 249 192 297
42 24 103 44 112 36 3 -2 3 -31 2 -66z m282 -1495 c34 -16 111 -59 172 -97 60
-37 137 -80 172 -96 62 -28 188 -59 237 -59 21 0 27 -8 46 -72 51 -170 152
-275 315 -330 65 -21 83 -23 275 -21 119 2 227 -2 258 -8 103 -21 141 -86 121
-206 l-11 -63 -908 0 c-816 0 -908 2 -914 16 -10 26 10 50 94 109 45 31 90 71
100 88 28 45 26 134 -4 217 -13 36 -41 110 -61 165 -48 132 -56 221 -26 290
19 43 56 95 68 95 2 0 31 -13 66 -28z m3104 -249 c-20 -2 -52 -2 -70 0 -17 2
0 4 38 4 39 0 53 -2 32 -4z m-6971 -134 c38 -12 146 -54 239 -94 94 -40 195
-80 226 -89 144 -41 274 -38 371 8 l50 24 45 -28 c75 -48 121 -53 379 -46 171
6 238 5 254 -4 21 -11 18 -14 -41 -34 -192 -67 -288 -150 -320 -279 l-11 -47
-633 0 c-559 0 -887 10 -905 27 -10 9 -5 120 9 196 14 74 14 79 -7 129 l-22
51 26 51 c71 142 179 184 340 135z"/>
</g>
</svg>
