<?xml version="1.0" standalone="no"?>
<!DOCTYPE svg PUBLIC "-//W3C//DTD SVG 20010904//EN"
 "http://www.w3.org/TR/2001/REC-SVG-20010904/DTD/svg10.dtd">
<svg version="1.0" xmlns="http://www.w3.org/2000/svg"
 width="1280.000000pt" height="1145.000000pt" viewBox="0 0 1280.000000 1145.000000"
 preserveAspectRatio="xMidYMid meet">
<metadata>
Created by potrace 1.15, written by Peter Selinger 2001-2017
</metadata>
<g transform="translate(0.000000,1145.000000) scale(0.100000,-0.100000)"
fill="#000000" stroke="none">
<path d="M5939 11436 c-87 -23 -149 -77 -166 -144 -5 -21 22 -342 168 -1982
11 -124 26 -287 32 -362 7 -76 10 -138 8 -138 -3 0 -35 29 -71 64 -312 304
-635 480 -1030 560 -218 44 -306 51 -620 50 -1052 -3 -1999 -267 -2698 -751
-833 -577 -1354 -1470 -1511 -2583 -37 -264 -45 -399 -45 -725 0 -323 8 -466
45 -750 132 -1025 528 -2058 1102 -2877 666 -949 1526 -1573 2404 -1742 223
-43 308 -50 553 -50 281 0 454 20 715 85 272 67 635 217 894 368 285 167 726
218 1121 129 126 -28 203 -58 330 -127 288 -158 652 -291 960 -351 264 -51
625 -65 885 -35 1219 143 2358 1088 3090 2566 372 751 591 1520 672 2359 21
218 24 773 5 965 -97 979 -398 1718 -952 2333 -239 266 -590 533 -923 703 -95
49 -117 64 -112 77 4 9 9 32 12 51 6 31 4 34 -13 26 -10 -4 -43 -14 -73 -22
l-53 -15 -157 61 c-154 59 -431 143 -586 177 -44 10 -81 18 -82 19 -2 1 1 16
6 33 61 210 69 593 21 934 -11 79 -29 242 -40 363 -28 290 -58 485 -75 485 -2
0 -25 -23 -51 -50 -58 -62 -147 -122 -282 -189 -225 -113 -416 -175 -660 -215
-564 -94 -1040 -327 -1339 -657 -146 -161 -244 -358 -320 -644 -10 -37 -8 -87
-33 784 l-21 684 -25 53 c-56 118 -199 236 -409 339 -259 127 -523 182 -676
141z"/>
</g>
</svg>
