<?xml version="1.0" standalone="no"?>
<!DOCTYPE svg PUBLIC "-//W3C//DTD SVG 20010904//EN"
 "http://www.w3.org/TR/2001/REC-SVG-20010904/DTD/svg10.dtd">
<svg version="1.0" xmlns="http://www.w3.org/2000/svg"
 width="640.000000pt" height="1280.000000pt" viewBox="0 0 640.000000 1280.000000"
 preserveAspectRatio="xMidYMid meet">
<metadata>
Created by potrace 1.15, written by Peter Selinger 2001-2017
</metadata>
<g transform="translate(0.000000,1280.000000) scale(0.100000,-0.100000)"
fill="#000000" stroke="none">
<path d="M3896 12785 c-205 -57 -415 -250 -501 -462 l-24 -58 -123 -22 c-213
-39 -338 -87 -419 -160 -58 -52 -79 -99 -79 -176 0 -99 42 -205 146 -365 30
-45 54 -84 54 -86 0 -3 -37 -26 -82 -52 -329 -188 -476 -354 -438 -493 22 -83
146 -179 312 -241 l57 -21 5 -57 c4 -31 11 -92 17 -136 31 -227 117 -346 253
-346 l52 0 -12 -97 c-39 -308 -53 -717 -35 -1023 12 -203 43 -515 61 -619 6
-30 8 -56 7 -58 -2 -1 -43 61 -91 140 -165 269 -381 557 -573 765 l-90 97 37
26 c104 74 92 225 -36 435 l-45 74 46 74 c111 179 114 317 8 379 -66 38 -131
49 -293 48 -85 0 -181 -4 -212 -9 -40 -6 -58 -5 -58 2 -1 72 -24 255 -40 306
-41 135 -103 185 -230 184 -91 0 -172 -25 -322 -96 l-107 -51 -48 31 c-178
114 -461 134 -624 45 -130 -70 -143 -172 -37 -288 61 -67 131 -117 248 -175
47 -23 86 -43 88 -45 1 -1 -15 -63 -37 -136 -53 -178 -74 -297 -69 -385 12
-177 115 -221 329 -140 53 20 99 36 102 36 3 0 27 -41 52 -92 61 -120 111
-192 172 -249 71 -66 107 -83 178 -83 72 0 125 25 196 91 l49 45 62 -15 c35
-9 117 -23 183 -32 66 -9 126 -22 133 -27 51 -43 371 -500 502 -718 152 -251
348 -669 336 -715 -11 -42 -85 -124 -164 -179 -90 -64 -200 -120 -517 -263
-423 -191 -649 -325 -817 -483 -159 -148 -245 -285 -323 -509 -154 -447 -171
-909 -49 -1334 97 -339 276 -638 539 -902 148 -148 213 -198 465 -362 388
-253 573 -387 732 -530 208 -188 331 -367 378 -552 19 -72 13 -201 -20 -451
-66 -508 -51 -715 74 -1010 96 -224 116 -313 116 -506 0 -250 -64 -451 -230
-719 l-24 -39 77 53 c231 160 356 312 429 521 33 95 33 95 32 285 -1 164 -4
209 -27 325 -89 447 -101 549 -87 730 31 392 176 736 448 1060 170 203 392
403 812 730 129 101 282 225 340 276 488 428 796 949 875 1478 20 131 20 398
0 521 -63 392 -235 723 -524 1013 -200 200 -265 236 -675 377 -356 122 -459
166 -580 248 -121 82 -200 178 -231 281 -35 114 -37 490 -5 741 18 138 59 344
101 505 43 167 157 516 192 589 20 42 27 47 91 68 l69 23 28 -24 c43 -36 112
-60 159 -53 82 11 149 89 210 245 21 51 39 93 41 94 2 0 36 -7 76 -16 90 -20
126 -20 168 -1 41 20 55 51 55 124 0 70 -27 165 -83 284 -22 48 -38 89 -36 91
2 1 29 19 59 39 171 112 241 232 180 309 -80 103 -358 80 -511 -42 l-36 -28
-83 29 c-207 73 -335 52 -377 -63 -6 -18 -12 -87 -12 -154 l-1 -121 -105 -7
c-139 -9 -199 -21 -263 -52 -56 -27 -82 -63 -82 -112 0 -37 50 -137 93 -187
l33 -38 -35 -81 c-28 -63 -36 -97 -39 -157 -4 -69 -2 -78 22 -106 33 -39 83
-56 162 -57 l61 0 -62 -120 c-209 -412 -349 -892 -395 -1361 -7 -66 -14 -127
-17 -135 -9 -28 -83 234 -133 468 -86 408 -115 716 -115 1257 l0 420 155 155
155 154 111 -3 c97 -3 117 0 163 19 71 31 126 95 151 178 26 85 27 274 1 422
-10 58 -17 106 -16 108 1 2 39 12 83 22 362 87 405 239 143 501 -58 58 -159
145 -223 194 -65 48 -118 89 -118 90 0 1 25 51 55 111 70 141 107 251 113 341
6 98 -3 137 -45 183 -53 60 -138 75 -247 45z"/>
</g>
</svg>
