<?xml version="1.0" standalone="no"?>
<!DOCTYPE svg PUBLIC "-//W3C//DTD SVG 20010904//EN"
 "http://www.w3.org/TR/2001/REC-SVG-20010904/DTD/svg10.dtd">
<svg version="1.0" xmlns="http://www.w3.org/2000/svg"
 width="1213.000000pt" height="1280.000000pt" viewBox="0 0 1213.000000 1280.000000"
 preserveAspectRatio="xMidYMid meet">
<metadata>
Created by potrace 1.15, written by Peter Selinger 2001-2017
</metadata>
<g transform="translate(0.000000,1280.000000) scale(0.100000,-0.100000)"
fill="#000000" stroke="none">
<path d="M3365 12791 c-22 -5 -74 -22 -115 -39 -41 -16 -187 -66 -325 -112
-294 -97 -403 -139 -582 -225 -375 -180 -736 -445 -944 -693 -88 -106 -254
-349 -344 -507 -400 -696 -851 -1950 -920 -2558 -24 -205 -43 -308 -91 -494
-24 -95 -44 -183 -44 -197 0 -22 35 -56 60 -56 5 0 30 15 55 34 55 43 126 69
280 106 109 27 463 97 675 134 676 119 1531 284 1658 320 435 126 862 363
1266 705 572 483 1129 1195 1523 1946 101 192 162 288 253 400 70 85 229 255
239 255 4 0 -5 -39 -21 -87 -82 -250 -218 -776 -312 -1203 l-45 -205 -37 -540
c-21 -297 -39 -542 -40 -544 -2 -2 -130 22 -284 54 -320 65 -296 65 -531 6
-482 -122 -905 -307 -1301 -573 -65 -43 -118 -81 -118 -84 0 -3 4 -2 10 1 16
10 11 -1 -7 -16 -11 -10 -14 -10 -9 -1 11 18 -9 15 -25 -5 -10 -11 -10 -14 -1
-9 18 11 15 1 -5 -15 -11 -10 -14 -10 -9 -1 11 18 -9 15 -25 -5 -10 -11 -10
-14 -1 -9 18 11 15 1 -5 -15 -11 -10 -14 -10 -9 -1 12 21 -10 13 -30 -10 -19
-22 -19 -23 1 -8 20 15 20 14 1 -8 -20 -23 -32 -30 -21 -12 15 24 -13 5 -93
-62 -137 -116 -330 -307 -453 -449 -112 -128 -136 -160 -108 -144 8 5 5 -1 -5
-13 -21 -25 -36 -31 -16 -7 7 8 10 15 7 15 -23 0 -350 -477 -342 -498 2 -7 1
-10 -4 -7 -6 3 -36 -41 -68 -97 -64 -114 -213 -412 -213 -425 1 -4 7 3 15 17
22 39 18 16 -7 -34 -12 -25 -26 -42 -31 -39 -6 4 -8 -1 -4 -10 3 -10 2 -17 -4
-17 -6 0 -8 -4 -5 -9 4 -5 2 -11 -3 -13 -19 -6 -157 -395 -220 -618 -212 -753
-258 -1646 -125 -2455 243 -1480 1059 -2651 2259 -3240 443 -218 887 -343
1405 -397 160 -16 626 -16 790 0 848 86 1613 403 2283 945 155 125 511 485
635 642 607 768 940 1611 1058 2675 25 225 31 834 10 1075 -20 226 -56 480
-95 662 -28 130 -28 132 -7 121 67 -36 1229 -701 1366 -783 342 -203 486 -311
573 -427 20 -28 35 -38 55 -38 54 0 67 27 77 163 21 285 46 457 95 665 82 341
114 762 114 1477 0 499 -6 666 -40 1050 -56 632 -176 1189 -331 1540 -85 193
-290 511 -478 742 -101 124 -399 423 -530 532 -55 45 -197 156 -315 247 -118
90 -249 193 -290 229 -41 36 -104 80 -140 99 -162 85 -500 159 -1035 226 -217
27 -398 45 -1070 110 -255 25 -584 65 -651 80 -27 6 -97 35 -155 65 -58 30
-194 90 -302 134 -108 44 -213 91 -234 104 -21 13 -63 32 -95 41 -47 15 -67
17 -125 8 -37 -6 -131 -14 -208 -17 -77 -3 -191 -13 -254 -22 -160 -22 -176
-19 -951 171 -523 128 -839 196 -1095 236 -144 23 -398 34 -460 21z m3105
-818 c0 -7 26 -54 59 -105 183 -291 341 -640 406 -898 14 -56 39 -195 56 -309
73 -500 217 -1084 385 -1558 73 -205 73 -205 43 -199 -155 36 -226 50 -380 77
-100 16 -188 28 -197 24 -8 -3 -20 -1 -26 4 -6 4 -40 11 -76 15 -36 4 -162 21
-280 37 -118 17 -232 31 -252 31 -22 0 -35 5 -32 10 4 6 -12 7 -42 4 -37 -5
-44 -4 -29 4 16 9 14 9 -13 5 -20 -3 -31 -1 -27 5 5 8 -30 13 -61 9 -14 -2
-23 28 -19 61 3 19 16 262 30 540 14 278 29 559 34 625 11 138 59 353 241
1085 120 480 153 588 170 560 6 -8 10 -20 10 -27z m-1425 -2653 c28 -7 28 -8
-10 -8 -22 0 -53 4 -70 8 -28 7 -28 8 10 8 22 0 54 -4 70 -8z m-145 -10 c-14
-4 -34 -8 -45 -8 -16 0 -15 2 5 8 14 4 34 8 45 8 16 0 15 -2 -5 -8z m55 -10
c-16 -4 -39 -8 -50 -8 -16 0 -15 2 5 8 14 4 36 8 50 8 22 0 22 -1 -5 -8z
m-145 -10 c-34 -11 -60 -11 -35 0 11 5 29 8 40 8 16 0 15 -2 -5 -8z m50 -10
c-34 -11 -60 -11 -35 0 11 5 29 8 40 8 16 0 15 -2 -5 -8z m-135 -10 c-11 -5
-27 -9 -35 -9 -9 0 -8 4 5 9 11 5 27 9 35 9 9 0 8 -4 -5 -9z m72 -6 c-3 -3
-12 -4 -19 -1 -8 3 -5 6 6 6 11 1 17 -2 13 -5z m-147 -14 c-8 -5 -22 -9 -30
-9 -10 0 -8 3 5 9 27 12 43 12 25 0z m80 -5 c-19 -7 -42 -13 -50 -13 -8 0 1 6
20 13 19 7 42 13 50 13 8 0 -1 -6 -20 -13z m403 8 c-13 -2 -33 -2 -45 0 -13 2
-3 4 22 4 25 0 35 -2 23 -4z m150 0 c-13 -2 -35 -2 -50 0 -16 2 -5 4 22 4 28
0 40 -2 28 -4z m-248 -13 c-16 -4 -39 -8 -50 -8 -16 0 -15 2 5 8 14 4 36 8 50
8 22 0 22 -1 -5 -8z m424 -21 c60 -20 42 -17 -79 12 -59 15 -64 18 -26 13 27
-3 74 -14 105 -25z m-800 7 c-8 -8 -172 -66 -176 -62 -2 2 33 18 79 34 79 29
107 37 97 28z m281 -6 c-14 -4 -34 -8 -45 -8 -16 0 -15 2 5 8 14 4 34 8 45 8
16 0 15 -2 -5 -8z m-430 -10 c-8 -5 -22 -9 -30 -9 -10 0 -8 3 5 9 27 12 43 12
25 0z m357 -6 c-3 -3 -12 -4 -19 -1 -8 3 -5 6 6 6 11 1 17 -2 13 -5z m-417
-14 c-8 -5 -22 -9 -30 -9 -10 0 -8 3 5 9 27 12 43 12 25 0z m377 4 c-3 -3 -12
-4 -19 -1 -8 3 -5 6 6 6 11 1 17 -2 13 -5z m716 -41 c-8 -63 -17 -72 -11 -11
4 30 1 49 -6 52 -6 2 -3 5 6 5 15 1 17 -6 11 -46z m-808 16 c-33 -10 -64 -18
-70 -18 -15 1 97 38 115 37 8 0 -12 -8 -45 -19z m-345 1 c-8 -5 -22 -9 -30 -9
-10 0 -8 3 5 9 27 12 43 12 25 0z m-60 -20 c-8 -5 -19 -10 -25 -10 -5 0 -3 5
5 10 8 5 20 10 25 10 6 0 3 -5 -5 -10z m105 -10 c-22 -10 -44 -18 -50 -18 -5
0 8 8 30 19 22 10 45 18 50 18 6 0 -8 -9 -30 -19z m106 -31 c-63 -21 -116 -37
-118 -35 -5 5 197 74 217 74 8 0 -36 -17 -99 -39z m-266 21 c-3 -5 -14 -10
-23 -9 -14 0 -13 2 3 9 27 11 27 11 20 0z m-55 -20 c-8 -5 -19 -10 -25 -10 -5
0 -3 5 5 10 8 5 20 10 25 10 6 0 3 -5 -5 -10z m130 -5 c-14 -8 -29 -14 -35
-14 -5 0 1 6 15 14 14 8 30 14 35 14 6 0 -1 -6 -15 -14z m1167 9 c-3 -3 -12
-4 -19 -1 -8 3 -5 6 6 6 11 1 17 -2 13 -5z m-74 -11 c-18 -2 -48 -2 -65 0 -18
2 -4 4 32 4 36 0 50 -2 33 -4z m-1273 -13 c-8 -5 -19 -10 -25 -10 -5 0 -3 5 5
10 8 5 20 10 25 10 6 0 3 -5 -5 -10z m1148 3 c-15 -2 -42 -2 -60 0 -18 2 -6 4
27 4 33 0 48 -2 33 -4z m-1048 -23 c-19 -11 -39 -19 -45 -19 -5 0 6 8 25 19
19 11 40 19 45 19 6 0 -6 -8 -25 -19z m910 9 c-25 -4 -61 -7 -80 -7 -32 1 -31
2 10 8 25 4 61 7 80 7 31 0 30 0 -10 -8z m-1090 -24 c-14 -8 -29 -14 -35 -14
-5 0 1 6 15 14 14 8 30 14 35 14 6 0 -1 -6 -15 -14z m319 11 c-8 -8 -133 -56
-136 -52 -2 2 24 15 59 29 58 24 87 33 77 23z m551 -17 c-58 -10 -112 -18
-120 -16 -19 4 154 35 195 35 17 0 -17 -9 -75 -19z m-751 -3 c-10 -9 -229
-116 -229 -111 0 6 211 114 224 114 5 1 7 -1 5 -3z m-179 -16 c-8 -5 -19 -10
-25 -10 -5 0 -3 5 5 10 8 5 20 10 25 10 6 0 3 -5 -5 -10z m770 -10 c-14 -4
-36 -8 -50 -8 -22 0 -22 1 5 8 17 4 39 8 50 8 16 0 15 -2 -5 -8z m-815 -10
c-3 -5 -12 -10 -18 -10 -7 0 -6 4 3 10 19 12 23 12 15 0z m255 -15 c-14 -8
-29 -14 -35 -14 -5 0 1 6 15 14 14 8 30 14 35 14 6 0 -1 -6 -15 -14z m477 9
c-3 -3 -12 -4 -19 -1 -8 3 -5 6 6 6 11 1 17 -2 13 -5z m-772 -14 c-3 -5 -12
-10 -18 -10 -7 0 -6 4 3 10 19 12 23 12 15 0z m610 -26 c-71 -19 -158 -44
-193 -55 -35 -12 -65 -19 -68 -17 -8 9 331 106 371 106 11 0 -38 -15 -110 -34z
m2332 30 c-3 -3 -12 -4 -19 -1 -8 3 -5 6 6 6 11 1 17 -2 13 -5z m129 -26 c6
-4 19 -6 28 -2 9 4 16 1 16 -6 0 -8 12 -11 38 -7 20 3 28 3 17 0 -15 -4 -1
-12 50 -29 91 -31 54 -23 -125 26 -102 28 -129 37 -90 33 30 -3 60 -10 66 -15z
m-3111 2 c-3 -5 -12 -10 -18 -10 -7 0 -6 4 3 10 19 12 23 12 15 0z m245 -15
c-25 -13 -49 -24 -55 -24 -5 0 10 11 35 24 25 13 50 24 55 24 6 0 -10 -11 -35
-24z m-285 -5 c-3 -5 -12 -10 -18 -10 -7 0 -6 4 3 10 19 12 23 12 15 0z m3308
-7 c-7 -2 -19 -2 -25 0 -7 3 -2 5 12 5 14 0 19 -2 13 -5z m-3348 -13 c-3 -5
-12 -10 -18 -10 -7 0 -6 4 3 10 19 12 23 12 15 0z m3435 0 c20 -6 21 -8 5 -8
-11 0 -31 4 -45 8 -20 6 -21 8 -5 8 11 0 31 -4 45 -8z m-3292 -5 c-3 -3 -56
-36 -119 -73 -63 -37 -127 -76 -144 -87 -16 -10 -25 -13 -20 -7 6 7 71 48 144
92 120 72 155 91 139 75z m-178 -10 c0 -2 -18 -14 -40 -25 -22 -11 -40 -18
-40 -15 0 2 17 13 38 24 42 23 42 23 42 16z m3560 -5 c20 -6 21 -8 5 -8 -11 0
-29 3 -40 8 -25 11 1 11 35 0z m-3310 -4 c0 -2 -7 -7 -16 -10 -8 -3 -12 -2 -9
4 6 10 25 14 25 6z m3285 -27 c14 -6 9 -7 -15 -3 -19 4 -44 11 -55 15 -14 6
-9 7 15 3 19 -4 44 -11 55 -15z m99 12 c3 -4 -6 -6 -19 -3 -14 2 -25 6 -25 8
0 8 39 4 44 -5z m37 -43 c8 -15 5 -15 -29 -6 -46 13 -58 23 -15 14 29 -7 31
-5 27 16 -2 13 -1 16 2 8 4 -8 11 -23 15 -32z m-3766 13 c-16 -14 -105 -63
-105 -58 0 5 101 66 110 67 2 0 0 -4 -5 -9z m265 4 c0 -2 -22 -16 -50 -30 -27
-14 -50 -23 -50 -20 0 2 21 16 48 29 53 28 52 28 52 21z m3417 -1 c-3 -3 -12
-4 -19 -1 -8 3 -5 6 6 6 11 1 17 -2 13 -5z m-3187 -8 c0 -6 -93 -37 -97 -32
-2 2 15 11 39 19 47 17 58 19 58 13z m-111 -40 c-8 -8 -133 -56 -136 -52 -2 2
24 15 59 29 58 24 87 33 77 23z m-229 -11 c0 -2 -13 -11 -30 -20 -38 -19 -40
-11 -2 9 31 17 32 18 32 11z m-305 -34 c-20 -17 -195 -131 -195 -126 0 2 44
34 97 70 90 60 121 78 98 56z m235 -6 c0 -2 -10 -9 -22 -15 -22 -11 -22 -10
-4 4 21 17 26 19 26 11z m110 -28 c-25 -12 -111 -54 -192 -94 -82 -40 -148
-71 -148 -68 0 8 362 185 375 184 6 0 -10 -10 -35 -22z m-160 -2 c0 -2 -10 -9
-22 -15 -22 -11 -22 -10 -4 4 21 17 26 19 26 11z m-120 -29 c0 -1 -31 -24 -70
-50 -38 -25 -70 -44 -70 -41 0 4 131 95 137 95 2 0 3 -2 3 -4z m70 0 c0 -2
-26 -20 -57 -41 -107 -70 -254 -177 -249 -182 2 -3 25 7 50 22 25 15 46 25 46
22 0 -3 -21 -17 -47 -33 -27 -15 -94 -58 -150 -95 -57 -37 -103 -67 -103 -65
0 10 138 110 149 108 7 -2 10 1 7 6 -7 11 93 89 248 194 98 67 106 72 106 64z
m-280 -141 c0 -2 -28 -23 -62 -46 -35 -23 -58 -36 -52 -30 10 11 105 79 112
80 1 1 2 -1 2 -4z m140 0 c0 -2 -13 -11 -30 -20 -38 -19 -40 -11 -2 9 31 17
32 18 32 11z m-400 -87 c-19 -17 -71 -62 -115 -102 -44 -39 -73 -62 -65 -52
17 23 203 186 210 186 3 -1 -11 -15 -30 -32z m-9 -142 c-44 -51 -113 -120
-153 -152 -40 -32 -67 -51 -60 -42 7 9 37 35 66 58 30 22 90 83 135 135 45 52
84 95 87 95 3 0 -31 -42 -75 -94z m-191 -29 c0 -1 -44 -45 -97 -97 l-98 -95
95 98 c88 90 100 102 100 94z m-238 -374 c-110 -109 -225 -227 -257 -263 -48
-55 -51 -56 -14 -10 80 100 444 467 467 470 1 0 -87 -89 -196 -197z m8 132
c-24 -25 -46 -45 -49 -45 -3 0 15 20 39 45 24 25 46 45 49 45 3 0 -15 -20 -39
-45z m-105 -120 c-32 -36 -60 -65 -63 -65 -5 0 8 16 82 98 54 59 39 33 -19
-33z m-181 -227 c-101 -137 -121 -163 -83 -103 39 60 148 205 154 205 3 0 -29
-46 -71 -102z m-116 -225 c-92 -124 -120 -155 -60 -68 48 69 130 175 136 175
3 0 -32 -48 -76 -107z m-8 48 c-5 -11 -15 -23 -21 -27 -6 -3 -3 5 6 20 20 30
30 35 15 7z m-46 -69 c-9 -16 -25 -39 -36 -53 l-20 -24 16 28 c28 48 48 77 53
77 2 0 -3 -13 -13 -28z m-91 -149 c-6 -16 -5 -17 12 -3 18 15 18 14 1 -12 -21
-32 -28 -36 -19 -11 5 11 3 14 -6 8 -10 -6 -11 -3 -2 14 14 25 23 28 14 4z
m-30 -50 c-5 -12 -3 -14 8 -8 8 5 11 4 6 0 -4 -5 -14 -10 -22 -11 -12 -2 -12
2 -5 17 13 23 22 25 13 2z m-10 -47 c-24 -41 -36 -55 -44 -50 -5 3 -5 14 1 25
6 11 16 16 22 13 7 -5 9 -2 6 8 -4 8 0 15 8 15 7 0 10 -5 7 -11z m-53 -87 c-6
-10 -16 -19 -23 -18 -9 0 -9 2 1 6 6 2 10 9 6 14 -3 5 0 9 6 9 6 0 8 5 4 12
-4 7 -3 8 4 4 9 -5 9 -13 2 -27z m-67 -116 c-25 -49 -50 -92 -56 -98 -11 -12
71 155 85 173 24 28 15 7 -29 -75z"/>
<path d="M3344 8464 c-18 -14 -18 -15 4 -4 12 6 22 13 22 15 0 8 -5 6 -26 -11z"/>
</g>
</svg>
