<?xml version="1.0" standalone="no"?>
<!DOCTYPE svg PUBLIC "-//W3C//DTD SVG 20010904//EN"
 "http://www.w3.org/TR/2001/REC-SVG-20010904/DTD/svg10.dtd">
<svg version="1.0" xmlns="http://www.w3.org/2000/svg"
 width="1272.000000pt" height="1280.000000pt" viewBox="0 0 1272.000000 1280.000000"
 preserveAspectRatio="xMidYMid meet">
<metadata>
Created by potrace 1.15, written by Peter Selinger 2001-2017
</metadata>
<g transform="translate(0.000000,1280.000000) scale(0.100000,-0.100000)"
fill="#000000" stroke="none">
<path d="M7550 12783 c-125 -34 -218 -108 -308 -241 -32 -48 -63 -101 -70
-118 -16 -39 -117 -106 -542 -360 -281 -167 -360 -210 -360 -191 0 4 52 34
116 68 63 34 113 63 111 65 -2 2 -80 -9 -173 -26 -543 -94 -1028 -218 -1694
-435 -107 -34 -221 -68 -252 -74 -65 -14 -126 -54 -165 -109 -19 -26 -49 -48
-102 -74 -84 -40 -314 -178 -671 -403 -129 -81 -358 -221 -510 -310 -345 -204
-363 -214 -491 -302 -166 -114 -247 -190 -385 -360 -117 -144 -401 -473 -532
-616 -30 -32 -52 -61 -49 -63 3 -3 52 22 110 55 136 78 143 81 127 50 -7 -13
-32 -45 -56 -72 l-42 -47 -104 -4 c-74 -3 -116 -9 -149 -24 -80 -35 -119 -104
-106 -186 5 -30 0 -39 -59 -99 -109 -113 -187 -256 -216 -398 -13 -65 -16 -69
-87 -133 -263 -236 -355 -451 -269 -626 l27 -54 -45 -48 c-57 -61 -74 -102
-74 -177 0 -49 6 -71 36 -127 41 -78 41 -108 -2 -209 -14 -33 -62 -154 -106
-270 -102 -271 -135 -433 -159 -784 -19 -281 15 -603 88 -823 l26 -79 -117
-352 c-119 -358 -156 -453 -208 -538 -16 -26 -40 -92 -55 -146 -22 -82 -26
-120 -26 -238 -1 -151 11 -204 68 -301 49 -83 164 -164 284 -199 78 -23 220
-37 312 -29 l87 6 93 -52 c103 -58 386 -242 435 -283 21 -18 34 -40 39 -64 28
-153 177 -353 337 -456 49 -31 58 -43 101 -131 26 -54 47 -110 47 -124 0 -15
-12 -85 -26 -157 -32 -160 -36 -310 -10 -400 42 -146 162 -284 309 -354 117
-56 183 -71 339 -78 l137 -6 6 -26 c4 -14 18 -38 32 -53 l25 -26 -56 -67 c-59
-72 -86 -120 -86 -153 0 -31 75 -119 123 -144 30 -16 60 -22 107 -23 77 0 135
20 237 82 l73 44 127 -93 c145 -105 339 -258 458 -361 278 -241 492 -357 748
-406 187 -36 432 -25 652 30 90 22 260 82 318 111 22 11 40 18 41 16 1 -2 7
-25 14 -53 17 -67 39 -95 98 -125 l49 -25 310 0 c335 1 488 13 721 60 242 49
461 137 584 236 l64 52 30 -18 c92 -53 270 -138 336 -159 109 -36 170 -46 269
-46 208 0 424 96 646 287 151 129 179 138 425 130 96 -3 222 -13 278 -22 114
-18 161 -12 312 37 331 107 657 402 833 754 41 82 26 71 307 219 116 62 205
116 240 147 134 119 337 292 463 396 75 62 158 138 182 170 135 170 243 420
334 772 48 184 85 307 94 316 4 4 7 -9 7 -28 0 -143 124 27 296 407 48 107 90
195 93 195 4 0 14 -13 23 -30 21 -37 62 -49 87 -26 28 26 68 122 86 211 10 48
18 138 20 225 2 116 9 183 38 335 47 249 67 394 73 535 3 63 13 160 22 215 25
149 22 421 -7 589 -26 154 -44 228 -118 481 -109 374 -124 431 -144 528 -10
54 -19 139 -19 190 0 153 -19 404 -41 535 -24 145 -51 235 -86 280 -14 18 -23
34 -22 36 2 1 25 10 51 20 61 22 98 52 98 78 0 11 -11 46 -25 77 -13 31 -41
101 -61 156 -48 131 -83 200 -158 310 -106 156 -279 314 -469 430 -48 29 -83
58 -93 77 -8 16 -13 32 -11 34 2 3 26 -11 52 -31 26 -20 49 -34 52 -31 12 12
-131 218 -272 391 -44 55 -122 154 -172 220 -98 128 -213 248 -330 342 -40 32
-130 109 -200 172 -70 63 -171 148 -223 189 -52 42 -160 142 -240 222 -415
419 -1069 857 -1347 905 -38 6 -41 9 -47 45 -9 54 -56 105 -116 125 -55 18
-63 26 -79 78 -7 20 -21 42 -31 47 -23 12 -90 13 -109 1 -31 -20 32 -121 76
-121 16 0 73 -40 73 -52 0 -7 -55 24 -169 97 l-38 23 30 89 c27 78 31 101 31
208 0 100 -3 130 -22 184 -66 183 -213 319 -442 409 -157 61 -243 82 -355 88
-76 3 -115 0 -165 -13z m1239 -12106 c-2 -2 -32 -27 -67 -55 -35 -29 -65 -52
-68 -52 -16 0 91 109 109 112 22 4 34 1 26 -5z"/>
</g>
</svg>
