<?xml version="1.0" standalone="no"?>
<!DOCTYPE svg PUBLIC "-//W3C//DTD SVG 20010904//EN"
 "http://www.w3.org/TR/2001/REC-SVG-20010904/DTD/svg10.dtd">
<svg version="1.0" xmlns="http://www.w3.org/2000/svg"
 width="895.000000pt" height="1280.000000pt" viewBox="0 0 895.000000 1280.000000"
 preserveAspectRatio="xMidYMid meet">
<metadata>
Created by potrace 1.15, written by Peter Selinger 2001-2017
</metadata>
<g transform="translate(0.000000,1280.000000) scale(0.100000,-0.100000)"
fill="#000000" stroke="none">
<path d="M7315 12785 c-755 -108 -1507 -664 -2104 -1558 -102 -153 -198 -314
-309 -517 -475 -874 -2090 -3512 -3850 -6290 -401 -633 -570 -948 -746 -1393
-280 -705 -368 -1335 -261 -1863 24 -120 72 -273 115 -369 13 -27 26 -72 31
-100 9 -55 56 -130 81 -130 8 0 32 -23 53 -50 55 -74 170 -189 252 -252 40
-30 71 -59 68 -63 -3 -4 1 -7 8 -7 6 1 56 -19 109 -45 53 -25 113 -51 133 -58
28 -9 33 -15 25 -25 -8 -10 0 -15 40 -25 28 -7 61 -9 74 -6 12 3 56 -1 97 -9
41 -8 139 -18 219 -21 429 -18 903 138 1375 452 482 321 947 809 1350 1419
336 508 1163 1896 2845 4775 717 1228 832 1424 1105 1880 322 539 457 802 612
1190 241 602 348 1194 302 1666 -24 254 -82 465 -184 669 -76 153 -160 269
-277 381 -177 170 -370 272 -625 330 -147 33 -381 41 -538 19z"/>
</g>
</svg>
