<?xml version="1.0" standalone="no"?>
<!DOCTYPE svg PUBLIC "-//W3C//DTD SVG 20010904//EN"
 "http://www.w3.org/TR/2001/REC-SVG-20010904/DTD/svg10.dtd">
<svg version="1.0" xmlns="http://www.w3.org/2000/svg"
 width="1280.000000pt" height="960.000000pt" viewBox="0 0 1280.000000 960.000000"
 preserveAspectRatio="xMidYMid meet">
<metadata>
Created by potrace 1.15, written by Peter Selinger 2001-2017
</metadata>
<g transform="translate(0.000000,960.000000) scale(0.100000,-0.100000)"
fill="#000000" stroke="none">
<path d="M7494 8718 c96 -65 101 -106 6 -57 -33 17 -43 19 -55 9 -10 -9 -33
-11 -69 -7 l-54 5 -29 -41 c-22 -33 -29 -57 -33 -112 -4 -62 -8 -71 -30 -82
-39 -19 -50 -42 -50 -104 0 -69 -12 -105 -39 -114 -29 -9 -34 -35 -11 -60 26
-28 25 -36 -6 -82 -31 -47 -41 -53 -81 -53 -21 0 -33 -5 -33 -14 0 -7 -6 -19
-14 -25 -8 -7 -24 -31 -35 -54 l-21 -42 21 -17 c12 -10 30 -18 40 -18 21 0 25
-20 7 -38 -14 -14 -37 -95 -38 -132 -1 -61 -52 -68 -69 -10 -7 25 -25 49 -48
67 -32 24 -47 28 -120 32 -94 4 -139 -3 -167 -24 -18 -14 -17 -17 23 -70 23
-30 44 -63 48 -72 3 -10 15 -28 26 -40 25 -28 18 -46 -30 -68 -21 -10 -63 -37
-94 -61 -56 -43 -57 -44 -67 -113 -9 -63 -17 -79 -80 -168 -39 -54 -83 -110
-99 -124 -16 -15 -71 -42 -128 -62 -55 -19 -128 -45 -162 -58 -56 -22 -65 -22
-105 -10 -24 7 -77 16 -118 20 -78 7 -131 33 -265 128 -27 19 -70 44 -95 55
-42 20 -50 20 -160 8 -63 -7 -123 -17 -132 -22 -31 -16 -19 -28 27 -28 32 0
45 -4 45 -14 0 -8 -24 -46 -54 -86 -70 -91 -135 -250 -158 -385 -22 -127 -37
-163 -95 -233 -31 -37 -145 -155 -253 -262 -107 -107 -226 -231 -263 -275
-108 -128 -219 -301 -316 -494 -34 -68 -73 -140 -86 -161 -13 -21 -41 -73 -63
-116 -22 -44 -60 -115 -86 -159 -68 -120 -91 -172 -140 -317 -53 -158 -66
-253 -66 -497 0 -160 5 -229 31 -396 12 -73 75 -283 90 -299 5 -6 9 -17 9 -25
0 -35 109 -196 245 -361 25 -30 63 -78 84 -105 21 -28 81 -85 134 -128 152
-124 313 -197 647 -294 30 -9 80 -30 110 -46 39 -21 92 -37 180 -54 218 -40
213 -39 243 -75 15 -18 32 -50 38 -71 6 -23 35 -66 72 -108 62 -69 62 -69 105
-64 48 5 87 -10 139 -56 134 -116 410 -248 575 -275 53 -8 102 -23 118 -34 14
-10 49 -24 76 -31 27 -6 57 -16 67 -21 20 -10 123 -27 212 -35 33 -3 65 -9 70
-13 24 -20 165 -68 216 -73 44 -5 63 -3 94 13 22 11 50 20 62 20 15 0 44 21
83 61 58 59 61 61 100 54 36 -6 41 -4 49 17 15 40 37 51 90 46 27 -3 57 -1 66
4 9 6 43 13 76 18 45 6 68 16 94 39 19 16 52 35 74 42 22 6 54 25 71 40 17 16
39 29 48 29 9 0 26 7 36 15 11 8 36 15 55 15 38 0 97 31 118 60 7 9 40 35 74
56 46 29 66 49 79 80 15 34 31 48 104 90 48 27 113 64 144 83 96 57 109 62
189 71 43 5 98 15 123 21 25 6 70 13 100 14 62 3 75 19 39 46 -33 25 -17 47
47 70 324 114 409 151 544 232 173 105 318 244 466 449 53 73 144 258 179 363
77 230 95 342 95 591 0 260 -17 348 -119 631 -54 150 -92 223 -196 378 -107
159 -168 230 -310 358 -191 172 -245 209 -610 423 -205 120 -333 207 -445 304
-52 46 -106 90 -120 98 -14 9 -43 30 -65 47 -137 107 -392 233 -680 337 -16 6
-40 18 -52 26 -12 7 -51 28 -85 45 -56 28 -64 36 -69 67 -3 19 -11 45 -17 57
-7 12 -12 30 -12 40 0 11 -13 32 -30 48 -28 27 -31 27 -48 12 -22 -20 -36 -21
-61 -5 -16 9 -27 8 -58 -6 -30 -13 -45 -15 -66 -7 -32 13 -35 27 -6 34 19 5
21 11 16 46 -6 49 2 53 96 49 65 -3 67 -2 107 37 70 68 148 177 170 240 33 89
34 90 121 65 74 -20 155 -26 175 -12 19 13 53 91 68 156 8 35 27 89 41 121 14
32 25 63 25 70 0 7 12 36 26 63 40 78 42 119 6 183 -17 30 -38 81 -46 113 -54
207 -177 410 -294 485 -87 55 -158 78 -267 85 -82 5 -97 4 -81 -6z"/>
</g>
</svg>
