<?xml version="1.0" standalone="no"?>
<!DOCTYPE svg PUBLIC "-//W3C//DTD SVG 20010904//EN"
 "http://www.w3.org/TR/2001/REC-SVG-20010904/DTD/svg10.dtd">
<svg version="1.0" xmlns="http://www.w3.org/2000/svg"
 width="1089.000000pt" height="1280.000000pt" viewBox="0 0 1089.000000 1280.000000"
 preserveAspectRatio="xMidYMid meet">
<metadata>
Created by potrace 1.15, written by Peter Selinger 2001-2017
</metadata>
<g transform="translate(0.000000,1280.000000) scale(0.100000,-0.100000)"
fill="#000000" stroke="none">
<path d="M4942 12767 c-29 -30 -32 -38 -32 -97 0 -113 7 -108 -336 -244 -164
-65 -303 -122 -308 -127 -15 -13 12 -123 84 -344 57 -177 103 -370 89 -378 -2
-1 -30 -15 -62 -30 -65 -31 -145 -36 -187 -12 -16 9 -54 14 -103 15 -67 0 -86
-4 -140 -31 -34 -17 -63 -32 -64 -33 -1 -1 4 -26 12 -56 10 -36 15 -106 15
-200 0 -96 5 -164 15 -200 21 -79 21 -80 -27 -80 -33 0 -59 10 -110 43 -37 23
-101 62 -143 87 -42 25 -104 63 -138 84 -34 21 -82 46 -107 54 -25 8 -61 29
-80 47 -44 42 -209 124 -320 160 -47 15 -121 49 -165 75 -44 26 -126 71 -182
99 -57 28 -132 69 -168 91 -128 78 -272 144 -445 201 -96 33 -181 59 -190 59
-8 -1 -55 -29 -104 -63 l-90 -62 -62 -140 c-61 -138 -63 -145 -98 -360 -19
-121 -47 -304 -62 -407 l-26 -187 16 -207 c9 -113 30 -294 47 -402 28 -184 34
-208 91 -352 52 -132 71 -167 127 -238 l65 -83 74 73 c79 78 130 166 222 383
23 55 87 188 140 295 86 171 106 202 159 255 l62 60 109 16 c100 14 120 14
218 0 105 -16 110 -17 178 -68 155 -115 258 -258 344 -478 13 -33 42 -85 66
-115 74 -98 177 -319 228 -490 93 -314 136 -610 136 -946 l0 -181 -103 -99
c-56 -54 -174 -160 -262 -234 -88 -74 -222 -187 -299 -253 -76 -65 -335 -258
-575 -429 -240 -172 -485 -354 -546 -406 -60 -52 -162 -131 -225 -177 -150
-109 -663 -621 -760 -760 -35 -49 -103 -137 -150 -195 -49 -60 -166 -232 -272
-400 -168 -267 -193 -312 -263 -480 -93 -223 -147 -438 -200 -795 -31 -205
-35 -253 -35 -440 0 -357 60 -700 212 -1200 33 -110 66 -210 72 -222 25 -49
270 -337 391 -462 174 -179 457 -407 585 -471 52 -26 129 -75 170 -108 96 -76
227 -142 365 -182 60 -17 152 -53 205 -80 52 -26 156 -67 230 -90 74 -23 207
-64 295 -92 96 -30 208 -58 280 -68 66 -10 166 -32 223 -48 l104 -30 120 16
c110 14 133 13 257 -2 177 -21 314 -62 475 -143 155 -78 510 -231 686 -296
100 -37 151 -49 254 -62 71 -9 160 -22 198 -30 99 -21 644 -21 743 0 38 8 108
15 155 15 47 0 110 7 140 15 30 8 91 15 136 15 76 0 194 20 327 55 49 13 157
15 703 15 l645 0 117 29 c64 17 178 44 253 60 167 37 334 98 511 187 256 128
764 519 1076 827 98 98 137 145 194 237 40 63 109 167 154 230 140 195 298
491 379 708 23 65 64 167 90 227 57 131 107 338 129 537 25 213 21 392 -15
677 l-30 246 -76 230 c-193 584 -348 908 -591 1240 -193 264 -393 476 -787
833 -304 275 -345 309 -525 428 -360 240 -982 615 -1200 724 -113 56 -301 154
-418 217 -117 63 -312 161 -435 217 -122 57 -321 153 -442 213 -121 61 -301
147 -400 193 -99 45 -185 87 -191 93 -6 7 -23 60 -38 119 -25 103 -26 118 -26
395 0 322 12 452 59 663 42 191 61 351 61 522 0 128 -4 167 -30 283 -25 112
-30 157 -30 265 0 129 0 131 34 198 39 76 93 132 215 221 120 88 122 89 238
89 101 1 102 0 150 -35 74 -55 237 -218 312 -313 98 -122 220 -300 281 -410
30 -52 81 -133 115 -180 34 -47 94 -134 134 -195 81 -121 249 -301 341 -364
30 -21 84 -53 120 -71 156 -79 488 -326 544 -405 22 -30 42 -55 46 -55 12 0
30 51 30 86 0 19 -6 47 -14 62 -7 15 -21 58 -30 95 -18 73 -179 406 -273 563
l-54 92 -30 198 -30 199 -129 355 c-102 282 -146 390 -216 525 -120 234 -305
556 -368 640 -28 39 -60 84 -70 100 -11 17 -58 70 -105 118 -114 117 -215 172
-371 198 -164 28 -221 25 -322 -16 -48 -19 -119 -54 -160 -79 -40 -24 -108
-58 -150 -75 -43 -17 -118 -51 -168 -76 -49 -25 -93 -45 -98 -45 -15 0 -32 74
-32 136 0 33 -8 91 -18 129 -16 61 -17 76 -5 120 7 28 13 57 13 66 0 25 -83
73 -180 104 -47 15 -102 36 -122 46 -21 11 -58 19 -86 19 -27 0 -69 7 -92 15
-27 9 -79 15 -139 15 -97 0 -97 0 -129 -33z"/>
</g>
</svg>
