<?xml version="1.0" standalone="no"?>
<!DOCTYPE svg PUBLIC "-//W3C//DTD SVG 20010904//EN"
 "http://www.w3.org/TR/2001/REC-SVG-20010904/DTD/svg10.dtd">
<svg version="1.0" xmlns="http://www.w3.org/2000/svg"
 width="827.000000pt" height="1280.000000pt" viewBox="0 0 827.000000 1280.000000"
 preserveAspectRatio="xMidYMid meet">
<metadata>
Created by potrace 1.15, written by Peter Selinger 2001-2017
</metadata>
<g transform="translate(0.000000,1280.000000) scale(0.100000,-0.100000)"
fill="#000000" stroke="none">
<path d="M3435 12790 c-27 -6 -60 -8 -72 -5 -13 3 -23 3 -23 1 0 -8 191 -118
272 -156 111 -52 250 -98 322 -106 l57 -7 -34 -36 c-46 -48 -74 -106 -85 -175
-11 -67 -6 -102 19 -137 17 -25 17 -26 -22 -99 -82 -151 -190 -258 -321 -320
-35 -17 -68 -30 -74 -30 -16 0 -40 103 -61 252 l-17 123 -60 51 c-284 237
-580 384 -981 485 l-169 42 -85 -22 c-96 -24 -288 -112 -297 -136 -3 -8 -14
-16 -23 -16 -9 -1 35 -7 96 -14 339 -39 560 -129 714 -292 l57 -59 -14 -54
c-24 -92 -19 -138 21 -199 28 -41 35 -63 35 -100 0 -147 -121 -351 -340 -571
-145 -146 -234 -209 -455 -320 -151 -77 -396 -180 -426 -180 -9 0 -50 16 -91
35 -81 37 -193 70 -273 80 -49 6 -49 6 45 -37 342 -158 666 -409 858 -663 44
-59 51 -75 46 -100 -9 -45 -19 -49 -39 -18 -34 51 -109 125 -230 226 -66 56
-159 137 -206 182 -109 103 -196 149 -414 220 -189 61 -183 62 -258 -22 -49
-55 -56 -71 -34 -77 6 -2 84 -27 172 -54 88 -28 180 -56 205 -62 74 -19 141
-62 190 -121 52 -63 120 -178 120 -204 0 -10 -13 -57 -30 -105 -38 -110 -58
-208 -68 -337 -8 -96 -12 -106 -53 -174 -152 -252 -469 -421 -934 -498 -109
-18 -160 -25 -390 -47 -66 -7 -68 -8 -35 -16 63 -16 349 -21 445 -9 190 25
376 74 542 142 51 20 93 36 93 33 0 -7 -81 -131 -124 -189 -396 -534 -676
-1573 -766 -2840 -41 -589 -41 -1535 0 -2150 52 -766 180 -1446 376 -1994 61
-170 199 -445 281 -561 141 -198 396 -426 637 -568 322 -191 441 -222 851
-222 264 0 366 -10 482 -45 108 -33 178 -67 220 -108 18 -17 33 -26 33 -19 0
7 12 12 28 12 71 1 155 69 168 137 14 75 -50 259 -114 327 -15 15 -66 57 -113
92 -92 69 -125 109 -214 249 -82 129 -112 194 -156 327 -64 196 -112 462 -169
951 -5 45 -14 120 -20 167 -6 47 -26 234 -45 415 -55 525 -114 1025 -131 1123
-11 56 3 35 26 -40 12 -40 57 -170 100 -288 384 -1056 704 -1579 1371 -2236
312 -307 397 -356 792 -460 265 -70 312 -79 522 -99 249 -24 391 -61 416 -108
22 -40 11 -109 -36 -236 -79 -210 -98 -406 -51 -506 37 -79 114 -141 229 -183
81 -31 90 -27 32 12 -64 43 -137 121 -165 176 -43 85 -44 216 -2 350 14 45 30
68 94 131 43 42 78 80 78 86 0 6 16 14 36 18 20 3 50 12 68 20 17 8 44 16 59
20 41 8 115 81 128 125 17 55 -6 117 -112 315 -292 539 -724 1638 -1171 2979
-99 297 -122 379 -88 315 30 -55 200 -282 269 -358 480 -533 986 -994 1288
-1173 173 -103 295 -137 618 -173 205 -23 261 -26 525 -23 328 3 376 -1 413
-38 40 -40 41 -78 6 -257 -28 -145 -31 -174 -26 -277 3 -63 13 -136 22 -161
34 -98 119 -163 261 -199 113 -29 126 -25 45 16 -93 46 -173 120 -208 192 -23
48 -28 72 -31 158 -6 150 7 196 78 284 33 40 60 82 60 94 0 17 11 24 58 38
121 36 208 121 206 203 -1 61 -30 112 -160 285 -320 425 -794 1238 -1391 2385
-439 843 -592 1176 -995 2175 -567 1403 -742 1869 -1013 2685 -106 319 -196
587 -200 596 -5 14 6 17 73 22 43 3 121 15 173 27 222 49 277 84 265 169 -7
48 -51 152 -86 202 -22 29 -110 194 -110 204 0 3 30 5 68 5 191 1 417 64 453
127 10 17 19 65 23 123 5 65 13 104 26 125 22 35 62 135 55 135 -3 0 -34 -24
-69 -52 -79 -65 -201 -138 -281 -168 -217 -81 -506 -5 -587 153 -58 115 -101
266 -124 438 -9 68 -18 129 -19 136 -2 6 -25 15 -52 18 -26 4 -127 22 -223 40
-96 19 -211 39 -255 45 -113 15 -341 21 -400 10z m-918 -1944 c-58 -127 -158
-251 -250 -313 -72 -48 -254 -127 -316 -138 -33 -5 -40 -2 -86 42 -67 64 -161
136 -243 185 -37 22 -56 37 -42 34 228 -50 451 -24 645 77 89 47 209 134 270
197 l40 41 3 -36 c2 -22 -6 -56 -21 -89z m-416 -502 l67 -7 -27 -61 c-15 -33
-32 -71 -37 -84 -9 -21 -14 -16 -88 74 l-78 97 49 -6 c26 -4 78 -9 114 -13z"/>
</g>
</svg>
