<?xml version="1.0" standalone="no"?>
<!DOCTYPE svg PUBLIC "-//W3C//DTD SVG 20010904//EN"
 "http://www.w3.org/TR/2001/REC-SVG-20010904/DTD/svg10.dtd">
<svg version="1.0" xmlns="http://www.w3.org/2000/svg"
 width="919.000000pt" height="1280.000000pt" viewBox="0 0 919.000000 1280.000000"
 preserveAspectRatio="xMidYMid meet">
<metadata>
Created by potrace 1.15, written by Peter Selinger 2001-2017
</metadata>
<g transform="translate(0.000000,1280.000000) scale(0.100000,-0.100000)"
fill="#000000" stroke="none">
<path d="M5268 12789 c-48 -4 -96 -10 -107 -14 -40 -12 -187 -188 -336 -400
-94 -134 -168 -278 -230 -450 -25 -72 -67 -180 -91 -241 -62 -156 -122 -335
-144 -429 -46 -195 -55 -302 -54 -685 0 -226 4 -408 12 -479 l13 -114 -26 -27
c-19 -20 -40 -29 -78 -34 -29 -4 -104 -18 -167 -32 -381 -84 -780 -283 -1035
-516 l-53 -48 -113 29 c-252 64 -456 86 -739 78 -289 -8 -480 -41 -745 -128
-622 -204 -1114 -656 -1291 -1184 -163 -489 -84 -984 227 -1418 55 -77 81
-127 124 -236 162 -415 258 -850 345 -1561 17 -140 47 -383 66 -540 19 -157
66 -469 104 -695 73 -432 126 -789 185 -1245 21 -164 47 -323 66 -395 178
-700 418 -1290 634 -1560 107 -135 177 -178 430 -270 385 -139 675 -192 999
-182 203 6 263 17 566 106 288 85 338 91 734 91 324 0 347 -1 461 -25 65 -13
189 -47 275 -74 210 -68 305 -90 433 -101 187 -17 459 12 737 80 457 112 662
204 806 363 173 191 376 639 549 1209 95 313 132 481 165 748 45 362 115 840
166 1140 77 449 102 620 154 1060 107 894 179 1275 320 1683 61 175 69 190
173 313 269 317 406 728 376 1127 -15 212 -62 377 -164 582 -179 358 -494 660
-900 859 -168 83 -293 129 -479 176 -249 63 -354 75 -651 75 -279 0 -385 -11
-594 -60 l-103 -25 -37 30 c-319 270 -692 449 -1089 525 -52 10 -103 26 -114
34 -43 36 -74 284 -65 526 12 296 87 851 133 974 43 116 111 208 267 365 210
212 378 337 589 441 59 29 112 55 118 57 22 7 -6 145 -45 225 -78 159 -245
247 -516 272 -124 12 -133 12 -261 0z"/>
</g>
</svg>
