<?xml version="1.0" standalone="no"?>
<!DOCTYPE svg PUBLIC "-//W3C//DTD SVG 20010904//EN"
 "http://www.w3.org/TR/2001/REC-SVG-20010904/DTD/svg10.dtd">
<svg version="1.0" xmlns="http://www.w3.org/2000/svg"
 width="1280.000000pt" height="1094.000000pt" viewBox="0 0 1280.000000 1094.000000"
 preserveAspectRatio="xMidYMid meet">
<metadata>
Created by potrace 1.15, written by Peter Selinger 2001-2017
</metadata>
<g transform="translate(0.000000,1094.000000) scale(0.100000,-0.100000)"
fill="#000000" stroke="none">
<path d="M6764 10882 c-286 -213 -467 -539 -578 -1040 -43 -192 -76 -411 -112
-727 -15 -132 -29 -242 -30 -244 -2 -2 -79 17 -171 42 -1185 321 -2275 281
-3214 -118 -820 -348 -1496 -954 -1978 -1772 -87 -148 -252 -485 -316 -648
-174 -438 -285 -896 -341 -1405 -25 -222 -25 -743 0 -970 93 -860 370 -1592
834 -2204 212 -279 511 -577 784 -778 705 -521 1559 -809 2601 -879 203 -13
841 -7 1027 11 368 34 776 91 1038 145 l112 22 197 -53 c932 -254 1797 -324
2578 -209 1078 159 1977 668 2632 1490 474 594 796 1358 918 2175 39 259 48
403 48 735 1 343 -9 487 -53 765 -267 1685 -1318 2964 -2851 3471 -503 166
-942 237 -1541 246 -422 7 -794 -16 -1138 -72 -47 -7 -86 -12 -87 -12 -6 7
-33 267 -39 372 -15 303 47 599 170 809 101 173 306 376 530 525 l68 45 -488
163 c-269 90 -496 165 -505 168 -10 4 -47 -17 -95 -53z"/>
</g>
</svg>
