<?xml version="1.0" standalone="no"?>
<!DOCTYPE svg PUBLIC "-//W3C//DTD SVG 20010904//EN"
 "http://www.w3.org/TR/2001/REC-SVG-20010904/DTD/svg10.dtd">
<svg version="1.0" xmlns="http://www.w3.org/2000/svg"
 width="1233.000000pt" height="1280.000000pt" viewBox="0 0 1233.000000 1280.000000"
 preserveAspectRatio="xMidYMid meet">
<metadata>
Created by potrace 1.15, written by Peter Selinger 2001-2017
</metadata>
<g transform="translate(0.000000,1280.000000) scale(0.100000,-0.100000)"
fill="#000000" stroke="none">
<path d="M11665 12793 c-330 -40 -664 -175 -1060 -426 -391 -249 -813 -530
-910 -607 -113 -89 -330 -306 -453 -453 -139 -166 -273 -351 -432 -597 -159
-246 -453 -684 -573 -855 -158 -225 -619 -865 -623 -865 -3 0 0 10 7 23 6 12
-8 2 -31 -23 l-41 -45 40 55 c172 237 402 606 591 950 256 466 330 596 458
810 75 124 178 293 230 375 192 305 185 292 190 349 4 49 2 54 -27 78 -41 36
-101 42 -330 35 -204 -5 -291 -22 -408 -76 -153 -72 -380 -353 -623 -771 -148
-255 -154 -270 -264 -695 -59 -228 -124 -438 -191 -610 -51 -131 -104 -249
-109 -244 -2 2 0 31 4 64 28 205 40 816 19 990 -32 276 -109 331 -249 178
-112 -123 -231 -328 -276 -480 -23 -74 -27 -107 -27 -208 0 -71 6 -155 16
-205 9 -47 28 -146 43 -220 22 -113 27 -162 27 -305 0 -158 -1 -175 -26 -250
-28 -82 -69 -160 -79 -149 -4 3 -25 -15 -49 -41 -23 -25 -59 -59 -79 -75 l-37
-29 -119 75 c-254 159 -612 321 -887 400 -536 154 -1036 179 -1677 83 -1155
-173 -2008 -683 -2575 -1539 -341 -515 -545 -1071 -617 -1675 -16 -143 -17
-597 0 -735 64 -520 192 -959 437 -1490 71 -153 111 -257 150 -380 230 -732
104 -1507 -372 -2299 -190 -316 -354 -530 -578 -759 -66 -67 -119 -122 -117
-122 1 0 53 42 115 93 324 268 844 644 1207 872 703 442 1262 665 1665 665 50
0 176 -9 280 -20 271 -28 605 -57 860 -74 343 -24 939 -3 1289 45 254 34 445
78 617 140 836 301 1460 897 1919 1834 294 601 420 1075 420 1586 0 640 -207
1259 -633 1892 -113 169 -241 336 -366 481 -47 55 -77 96 -66 92 78 -30 305
-73 438 -82 169 -11 307 36 351 121 47 92 1 252 -100 344 -25 24 -44 44 -42
45 2 1 73 29 158 61 85 32 254 97 375 145 272 108 331 123 495 122 103 0 142
-5 220 -26 394 -108 492 -127 710 -133 277 -9 410 31 476 143 24 40 24 46 18
163 -6 102 -5 121 7 117 8 -2 56 -14 107 -26 85 -21 101 -21 185 -11 257 33
523 160 703 336 102 100 144 169 165 273 l13 62 68 26 c83 32 196 104 263 170
144 139 254 388 242 544 -8 90 -37 151 -105 220 -124 123 -363 206 -697 239
-60 6 -134 14 -163 17 l-53 6 58 40 c123 86 213 197 213 262 0 11 -17 42 -38
70 -21 28 -48 65 -59 82 l-22 30 107 1 c270 2 417 123 468 384 22 114 14 171
-30 215 -28 28 -41 33 -104 40 -40 3 -72 8 -72 10 0 1 107 150 237 331 279
386 393 577 393 656 0 26 -39 67 -87 91 -101 51 -418 89 -578 69z"/>
</g>
</svg>
