<?xml version="1.0" standalone="no"?>
<!DOCTYPE svg PUBLIC "-//W3C//DTD SVG 20010904//EN"
 "http://www.w3.org/TR/2001/REC-SVG-20010904/DTD/svg10.dtd">
<svg version="1.0" xmlns="http://www.w3.org/2000/svg"
 width="1280.000000pt" height="1124.000000pt" viewBox="0 0 1280.000000 1124.000000"
 preserveAspectRatio="xMidYMid meet">
<metadata>
Created by potrace 1.15, written by Peter Selinger 2001-2017
</metadata>
<g transform="translate(0.000000,1124.000000) scale(0.100000,-0.100000)"
fill="#000000" stroke="none">
<path d="M783 10993 c-139 -231 -155 -262 -228 -453 -43 -113 -115 -317 -161
-455 l-84 -250 -120 -650 c-66 -357 -126 -686 -134 -730 -8 -44 -17 -177 -21
-295 -3 -118 -12 -439 -21 -713 -16 -540 -17 -517 41 -1153 l15 -161 136 -444
c74 -244 150 -493 168 -554 18 -60 63 -213 101 -340 l68 -230 330 -519 330
-520 296 -365 c162 -201 302 -373 311 -382 133 -138 615 -585 812 -754 l256
-220 427 -239 c397 -222 451 -249 754 -378 290 -123 449 -183 1036 -385 l140
-48 -255 -7 c-140 -4 -415 -12 -610 -18 -1599 -50 -2744 -175 -2768 -304 -9
-45 65 -80 256 -120 1222 -258 5852 -308 8012 -86 507 53 828 120 861 182 45
84 -347 171 -1071 238 -69 6 -170 15 -225 20 -55 5 -142 12 -193 16 -51 3 -91
8 -88 11 2 3 107 31 233 62 211 54 262 71 688 241 462 183 557 225 935 408
l205 99 355 272 c195 150 520 404 721 564 l367 292 71 145 71 145 0 350 c0
332 -2 362 -30 575 -23 173 -34 228 -48 241 -9 9 -122 89 -250 178 -229 159
-564 358 -1546 921 -289 165 -357 209 -706 461 -375 270 -392 280 -595 381
-121 60 -549 301 -1005 565 -890 515 -820 475 -1550 871 -457 247 -618 341
-1110 647 -316 196 -651 400 -745 452 -93 53 -379 229 -635 391 -421 268 -497
313 -800 467 -438 223 -710 383 -1065 625 -159 109 -513 340 -785 514 -406
261 -696 459 -967 663 l-31 24 -149 -248z"/>
</g>
</svg>
